%FSLAX45Y45*%
G04 Gerber Fmt 4.5, Leading zero omitted, Abs format (unit mm)*
G04 Created by KiCad (PCBNEW (5.1.6-0-10_14)) date 2020-08-16 20:11:17*
%MOMM*%
%LPD*%
G01*
G04 APERTURE LIST*
%TA.AperFunction,Profile*%
%ADD10C,0.150000*%
%TD*%
%ADD11C,0.200000*%
%ADD12C,0.300000*%
G04 APERTURE END LIST*
D10*
X17900000Y-5325000D02*
X17900000Y-14000000D01*
X17900000Y-3600000D02*
X17900000Y-4965000D01*
X17720000Y-4965000D02*
X17900000Y-4965000D01*
X17720000Y-5325000D02*
X17720000Y-4965000D01*
X17900000Y-5325000D02*
X17720000Y-5325000D01*
X12100000Y-14000000D02*
X17900000Y-14000000D01*
X12100000Y-3600000D02*
X12100000Y-14000000D01*
X12100000Y-3600000D02*
X17900000Y-3600000D01*
D11*
X12197300Y-5407300D02*
X12222700Y-5432700D01*
X12222700Y-5407300D02*
X12197300Y-5432700D01*
X12207300Y-5077300D02*
X12232700Y-5102700D01*
X12232700Y-5077300D02*
X12207300Y-5102700D01*
X12207300Y-12527300D02*
X12232700Y-12552700D01*
X12232700Y-12527300D02*
X12207300Y-12552700D01*
X12207300Y-12607300D02*
X12232700Y-12632700D01*
X12232700Y-12607300D02*
X12207300Y-12632700D01*
X12217300Y-5247300D02*
X12242700Y-5272700D01*
X12242700Y-5247300D02*
X12217300Y-5272700D01*
X12247300Y-5537300D02*
X12272700Y-5562700D01*
X12272700Y-5537300D02*
X12247300Y-5562700D01*
X12267300Y-12447300D02*
X12292700Y-12472700D01*
X12292700Y-12447300D02*
X12267300Y-12472700D01*
X12287300Y-4967300D02*
X12312700Y-4992700D01*
X12312700Y-4967300D02*
X12287300Y-4992700D01*
X12344800Y-13167300D02*
X12370200Y-13192700D01*
X12370200Y-13167300D02*
X12344800Y-13192700D01*
X12347300Y-12447300D02*
X12372700Y-12472700D01*
X12372700Y-12447300D02*
X12347300Y-12472700D01*
X12367300Y-5247300D02*
X12392700Y-5272700D01*
X12392700Y-5247300D02*
X12367300Y-5272700D01*
X12402300Y-13112300D02*
X12427700Y-13137700D01*
X12427700Y-13112300D02*
X12402300Y-13137700D01*
X12407300Y-5537300D02*
X12432700Y-5562700D01*
X12432700Y-5537300D02*
X12407300Y-5562700D01*
X12417300Y-4967300D02*
X12442700Y-4992700D01*
X12442700Y-4967300D02*
X12417300Y-4992700D01*
X12427300Y-12447300D02*
X12452700Y-12472700D01*
X12452700Y-12447300D02*
X12427300Y-12472700D01*
X12487300Y-12527300D02*
X12512700Y-12552700D01*
X12512700Y-12527300D02*
X12487300Y-12552700D01*
X12487300Y-12607300D02*
X12512700Y-12632700D01*
X12512700Y-12607300D02*
X12487300Y-12632700D01*
X12538300Y-13414300D02*
X12563700Y-13439700D01*
X12563700Y-13414300D02*
X12538300Y-13439700D01*
X12546300Y-13549300D02*
X12571700Y-13574700D01*
X12571700Y-13549300D02*
X12546300Y-13574700D01*
X12547300Y-5007300D02*
X12572700Y-5032700D01*
X12572700Y-5007300D02*
X12547300Y-5032700D01*
X12547300Y-5467300D02*
X12572700Y-5492700D01*
X12572700Y-5467300D02*
X12547300Y-5492700D01*
X12609300Y-13350300D02*
X12634700Y-13375700D01*
X12634700Y-13350300D02*
X12609300Y-13375700D01*
X12617300Y-5147300D02*
X12642700Y-5172700D01*
X12642700Y-5147300D02*
X12617300Y-5172700D01*
X12632300Y-13638300D02*
X12657700Y-13663700D01*
X12657700Y-13638300D02*
X12632300Y-13663700D01*
X12697300Y-5467300D02*
X12722700Y-5492700D01*
X12722700Y-5467300D02*
X12697300Y-5492700D01*
X12723300Y-12776300D02*
X12748700Y-12801700D01*
X12748700Y-12776300D02*
X12723300Y-12801700D01*
X12732300Y-5027300D02*
X12757700Y-5052700D01*
X12757700Y-5027300D02*
X12732300Y-5052700D01*
X12804800Y-4899800D02*
X12830200Y-4925200D01*
X12830200Y-4899800D02*
X12804800Y-4925200D01*
X12812300Y-5117300D02*
X12837700Y-5142700D01*
X12837700Y-5117300D02*
X12812300Y-5142700D01*
X12857300Y-5387300D02*
X12882700Y-5412700D01*
X12882700Y-5387300D02*
X12857300Y-5412700D01*
X12872300Y-4817300D02*
X12897700Y-4842700D01*
X12897700Y-4817300D02*
X12872300Y-4842700D01*
X12903300Y-12645300D02*
X12928700Y-12670700D01*
X12928700Y-12645300D02*
X12903300Y-12670700D01*
X12905300Y-12789300D02*
X12930700Y-12814700D01*
X12930700Y-12789300D02*
X12905300Y-12814700D01*
X12907300Y-5457300D02*
X12932700Y-5482700D01*
X12932700Y-5457300D02*
X12907300Y-5482700D01*
X12969800Y-5327300D02*
X12995200Y-5352700D01*
X12995200Y-5327300D02*
X12969800Y-5352700D01*
X12972300Y-13079800D02*
X12997700Y-13105200D01*
X12997700Y-13079800D02*
X12972300Y-13105200D01*
X12974300Y-12717300D02*
X12999700Y-12742700D01*
X12999700Y-12717300D02*
X12974300Y-12742700D01*
X13027299Y-12307300D02*
X13052699Y-12332700D01*
X13052699Y-12307300D02*
X13027299Y-12332700D01*
X13027300Y-12607300D02*
X13052700Y-12632700D01*
X13052700Y-12607300D02*
X13027300Y-12632700D01*
X13037300Y-4887300D02*
X13062700Y-4912700D01*
X13062700Y-4887300D02*
X13037300Y-4912700D01*
X13044800Y-5027300D02*
X13070200Y-5052700D01*
X13070200Y-5027300D02*
X13044800Y-5052700D01*
X13047300Y-5457300D02*
X13072700Y-5482700D01*
X13072700Y-5457300D02*
X13047300Y-5482700D01*
X13052300Y-11637300D02*
X13077700Y-11662700D01*
X13077700Y-11637300D02*
X13052300Y-11662700D01*
X13059800Y-12907300D02*
X13085200Y-12932700D01*
X13085200Y-12907300D02*
X13059800Y-12932700D01*
X13099800Y-13264800D02*
X13125200Y-13290200D01*
X13125200Y-13264800D02*
X13099800Y-13290200D01*
X13117300Y-11572300D02*
X13142700Y-11597700D01*
X13142700Y-11572300D02*
X13117300Y-11597700D01*
X13147300Y-12822300D02*
X13172700Y-12847700D01*
X13172700Y-12822300D02*
X13147300Y-12847700D01*
X13187300Y-5457300D02*
X13212700Y-5482700D01*
X13212700Y-5457300D02*
X13187300Y-5482700D01*
X13207300Y-5307300D02*
X13232700Y-5332700D01*
X13232700Y-5307300D02*
X13207300Y-5332700D01*
X13217300Y-5127300D02*
X13242700Y-5152700D01*
X13242700Y-5127300D02*
X13217300Y-5152700D01*
X13259800Y-12907300D02*
X13285200Y-12932700D01*
X13285200Y-12907300D02*
X13259800Y-12932700D01*
X13327300Y-5457300D02*
X13352700Y-5482700D01*
X13352700Y-5457300D02*
X13327300Y-5482700D01*
X13354800Y-12684800D02*
X13380200Y-12710200D01*
X13380200Y-12684800D02*
X13354800Y-12710200D01*
X13357300Y-5127300D02*
X13382700Y-5152700D01*
X13382700Y-5127300D02*
X13357300Y-5152700D01*
X13397300Y-5307300D02*
X13422700Y-5332700D01*
X13422700Y-5307300D02*
X13397300Y-5332700D01*
X13467300Y-5457300D02*
X13492700Y-5482700D01*
X13492700Y-5457300D02*
X13467300Y-5482700D01*
X13493300Y-13177300D02*
X13518700Y-13202700D01*
X13518700Y-13177300D02*
X13493300Y-13202700D01*
X13497300Y-5127300D02*
X13522700Y-5152700D01*
X13522700Y-5127300D02*
X13497300Y-5152700D01*
X13499800Y-12907300D02*
X13525200Y-12932700D01*
X13525200Y-12907300D02*
X13499800Y-12932700D01*
X13552300Y-12557300D02*
X13577700Y-12582700D01*
X13577700Y-12557300D02*
X13552300Y-12582700D01*
X13552300Y-12702300D02*
X13577700Y-12727700D01*
X13577700Y-12702300D02*
X13552300Y-12727700D01*
X13587300Y-5307300D02*
X13612700Y-5332700D01*
X13612700Y-5307300D02*
X13587300Y-5332700D01*
X13597300Y-5457300D02*
X13622700Y-5482700D01*
X13622700Y-5457300D02*
X13597300Y-5482700D01*
X13604800Y-12822300D02*
X13630200Y-12847700D01*
X13630200Y-12822300D02*
X13604800Y-12847700D01*
X13622300Y-12629800D02*
X13647700Y-12655200D01*
X13647700Y-12629800D02*
X13622300Y-12655200D01*
X13627300Y-5127300D02*
X13652700Y-5152700D01*
X13652700Y-5127300D02*
X13627300Y-5152700D01*
X13656300Y-13177300D02*
X13681700Y-13202700D01*
X13681700Y-13177300D02*
X13656300Y-13202700D01*
X13692300Y-12907300D02*
X13717700Y-12932700D01*
X13717700Y-12907300D02*
X13692300Y-12932700D01*
X13727300Y-5457300D02*
X13752700Y-5482700D01*
X13752700Y-5457300D02*
X13727300Y-5482700D01*
X13767300Y-5127300D02*
X13792700Y-5152700D01*
X13792700Y-5127300D02*
X13767300Y-5152700D01*
X13777300Y-5777300D02*
X13802700Y-5802700D01*
X13802700Y-5777300D02*
X13777300Y-5802700D01*
X13777300Y-6002300D02*
X13802700Y-6027700D01*
X13802700Y-6002300D02*
X13777300Y-6027700D01*
X13787300Y-5307300D02*
X13812700Y-5332700D01*
X13812700Y-5307300D02*
X13787300Y-5332700D01*
X13797300Y-10837300D02*
X13822700Y-10862700D01*
X13822700Y-10837300D02*
X13797300Y-10862700D01*
X13867300Y-5457300D02*
X13892700Y-5482700D01*
X13892700Y-5457300D02*
X13867300Y-5482700D01*
X13907300Y-7487300D02*
X13932700Y-7512700D01*
X13932700Y-7487300D02*
X13907300Y-7512700D01*
X13917300Y-5127300D02*
X13942700Y-5152700D01*
X13942700Y-5127300D02*
X13917300Y-5152700D01*
X13917300Y-10727300D02*
X13942700Y-10752700D01*
X13942700Y-10727300D02*
X13917300Y-10752700D01*
X13917300Y-12372300D02*
X13942700Y-12397700D01*
X13942700Y-12372300D02*
X13917300Y-12397700D01*
X13927300Y-12705300D02*
X13952700Y-12730700D01*
X13952700Y-12705300D02*
X13927300Y-12730700D01*
X13952300Y-13159800D02*
X13977700Y-13185200D01*
X13977700Y-13159800D02*
X13952300Y-13185200D01*
X13957300Y-7777300D02*
X13982700Y-7802700D01*
X13982700Y-7777300D02*
X13957300Y-7802700D01*
X13967300Y-7167300D02*
X13992700Y-7192700D01*
X13992700Y-7167300D02*
X13967300Y-7192700D01*
X13967300Y-7407300D02*
X13992700Y-7432700D01*
X13992700Y-7407300D02*
X13967300Y-7432700D01*
X13977300Y-5307300D02*
X14002700Y-5332700D01*
X14002700Y-5307300D02*
X13977300Y-5332700D01*
X13997300Y-5457300D02*
X14022700Y-5482700D01*
X14022700Y-5457300D02*
X13997300Y-5482700D01*
X13999300Y-12635300D02*
X14024700Y-12660700D01*
X14024700Y-12635300D02*
X13999300Y-12660700D01*
X14022300Y-13084800D02*
X14047700Y-13110200D01*
X14047700Y-13084800D02*
X14022300Y-13110200D01*
X14032300Y-7777300D02*
X14057700Y-7802700D01*
X14057700Y-7777300D02*
X14032300Y-7802700D01*
X14052300Y-10349800D02*
X14077700Y-10375200D01*
X14077700Y-10349800D02*
X14052300Y-10375200D01*
X14057300Y-7082300D02*
X14082700Y-7107700D01*
X14082700Y-7082300D02*
X14057300Y-7107700D01*
X14067300Y-5127300D02*
X14092700Y-5152700D01*
X14092700Y-5127300D02*
X14067300Y-5152700D01*
X14073300Y-12704300D02*
X14098700Y-12729700D01*
X14098700Y-12704300D02*
X14073300Y-12729700D01*
X14077300Y-6002300D02*
X14102700Y-6027700D01*
X14102700Y-6002300D02*
X14077300Y-6027700D01*
X14097300Y-5742300D02*
X14122700Y-5767700D01*
X14122700Y-5742300D02*
X14097300Y-5767700D01*
X14097300Y-7957300D02*
X14122700Y-7982700D01*
X14122700Y-7957300D02*
X14097300Y-7982700D01*
X14127300Y-5457300D02*
X14152700Y-5482700D01*
X14152700Y-5457300D02*
X14127300Y-5482700D01*
X14147300Y-7167300D02*
X14172700Y-7192700D01*
X14172700Y-7167300D02*
X14147300Y-7192700D01*
X14147300Y-7252300D02*
X14172700Y-7277700D01*
X14172700Y-7252300D02*
X14147300Y-7277700D01*
X14152300Y-7957300D02*
X14177700Y-7982700D01*
X14177700Y-7957300D02*
X14152300Y-7982700D01*
X14152300Y-13287300D02*
X14177700Y-13312700D01*
X14177700Y-13287300D02*
X14152300Y-13312700D01*
X14167300Y-5307300D02*
X14192700Y-5332700D01*
X14192700Y-5307300D02*
X14167300Y-5332700D01*
X14181300Y-13070300D02*
X14206700Y-13095700D01*
X14206700Y-13070300D02*
X14181300Y-13095700D01*
X14207300Y-5127300D02*
X14232700Y-5152700D01*
X14232700Y-5127300D02*
X14207300Y-5152700D01*
X14207300Y-13362300D02*
X14232700Y-13387700D01*
X14232700Y-13362300D02*
X14207300Y-13387700D01*
X14222300Y-7182300D02*
X14247700Y-7207700D01*
X14247700Y-7182300D02*
X14222300Y-7207700D01*
X14254800Y-10074800D02*
X14280200Y-10100200D01*
X14280200Y-10074800D02*
X14254800Y-10100200D01*
X14257300Y-5457300D02*
X14282700Y-5482700D01*
X14282700Y-5457300D02*
X14257300Y-5482700D01*
X14265300Y-13159300D02*
X14290700Y-13184700D01*
X14290700Y-13159300D02*
X14265300Y-13184700D01*
X14282300Y-7767300D02*
X14307700Y-7792700D01*
X14307700Y-7767300D02*
X14282300Y-7792700D01*
X14282300Y-7957300D02*
X14307700Y-7982700D01*
X14307700Y-7957300D02*
X14282300Y-7982700D01*
X14287300Y-6992300D02*
X14312700Y-7017700D01*
X14312700Y-6992300D02*
X14287300Y-7017700D01*
X14310300Y-13652300D02*
X14335700Y-13677700D01*
X14335700Y-13652300D02*
X14310300Y-13677700D01*
X14310300Y-13832300D02*
X14335700Y-13857700D01*
X14335700Y-13832300D02*
X14310300Y-13857700D01*
X14335300Y-5653300D02*
X14360700Y-5678700D01*
X14360700Y-5653300D02*
X14335300Y-5678700D01*
X14337300Y-5387300D02*
X14362700Y-5412700D01*
X14362700Y-5387300D02*
X14337300Y-5412700D01*
X14352300Y-5127300D02*
X14377700Y-5152700D01*
X14377700Y-5127300D02*
X14352300Y-5152700D01*
X14367300Y-7867300D02*
X14392700Y-7892700D01*
X14392700Y-7867300D02*
X14367300Y-7892700D01*
X14397300Y-13742300D02*
X14422700Y-13767700D01*
X14422700Y-13742300D02*
X14397300Y-13767700D01*
X14406300Y-5727300D02*
X14431700Y-5752700D01*
X14431700Y-5727300D02*
X14406300Y-5752700D01*
X14407300Y-7632300D02*
X14432700Y-7657700D01*
X14432700Y-7632300D02*
X14407300Y-7657700D01*
X14422300Y-5417300D02*
X14447700Y-5442700D01*
X14447700Y-5417300D02*
X14422300Y-5442700D01*
X14447300Y-7717300D02*
X14472700Y-7742700D01*
X14472700Y-7717300D02*
X14447300Y-7742700D01*
X14457300Y-4957300D02*
X14482700Y-4982700D01*
X14482700Y-4957300D02*
X14457300Y-4982700D01*
X14478300Y-5785300D02*
X14503700Y-5810700D01*
X14503700Y-5785300D02*
X14478300Y-5810700D01*
X14487300Y-7768619D02*
X14512700Y-7794019D01*
X14512700Y-7768619D02*
X14487300Y-7794019D01*
X14492300Y-5344800D02*
X14517700Y-5370200D01*
X14517700Y-5344800D02*
X14492300Y-5370200D01*
X14494800Y-5489800D02*
X14520200Y-5515200D01*
X14520200Y-5489800D02*
X14494800Y-5515200D01*
X14497300Y-5127300D02*
X14522700Y-5152700D01*
X14522700Y-5127300D02*
X14497300Y-5152700D01*
X14532300Y-10352300D02*
X14557700Y-10377700D01*
X14557700Y-10352300D02*
X14532300Y-10377700D01*
X14547300Y-4867300D02*
X14572700Y-4892700D01*
X14572700Y-4867300D02*
X14547300Y-4892700D01*
X14547300Y-5047300D02*
X14572700Y-5072700D01*
X14572700Y-5047300D02*
X14547300Y-5072700D01*
X14547300Y-7827300D02*
X14572700Y-7852700D01*
X14572700Y-7827300D02*
X14547300Y-7852700D01*
X14627300Y-6002300D02*
X14652700Y-6027700D01*
X14652700Y-6002300D02*
X14627300Y-6027700D01*
X14642300Y-6992300D02*
X14667700Y-7017700D01*
X14667700Y-6992300D02*
X14642300Y-7017700D01*
X14642300Y-7112300D02*
X14667700Y-7137700D01*
X14667700Y-7112300D02*
X14642300Y-7137700D01*
X14647300Y-7817300D02*
X14672700Y-7842700D01*
X14672700Y-7817300D02*
X14647300Y-7842700D01*
X14652300Y-11637300D02*
X14677700Y-11662700D01*
X14677700Y-11637300D02*
X14652300Y-11662700D01*
X14667300Y-5137300D02*
X14692700Y-5162700D01*
X14692700Y-5137300D02*
X14667300Y-5162700D01*
X14697300Y-7767300D02*
X14722700Y-7792700D01*
X14722700Y-7767300D02*
X14697300Y-7792700D01*
X14702300Y-6717300D02*
X14727700Y-6742700D01*
X14727700Y-6717300D02*
X14702300Y-6742700D01*
X14709800Y-10567300D02*
X14735200Y-10592700D01*
X14735200Y-10567300D02*
X14709800Y-10592700D01*
X14712300Y-11572300D02*
X14737700Y-11597700D01*
X14737700Y-11572300D02*
X14712300Y-11597700D01*
X14727300Y-5187300D02*
X14752700Y-5212700D01*
X14752700Y-5187300D02*
X14727300Y-5212700D01*
X14727300Y-5777300D02*
X14752700Y-5802700D01*
X14752700Y-5777300D02*
X14727300Y-5802700D01*
X14727300Y-13067300D02*
X14752700Y-13092700D01*
X14752700Y-13067300D02*
X14727300Y-13092700D01*
X14742300Y-7637300D02*
X14767700Y-7662700D01*
X14767700Y-7637300D02*
X14742300Y-7662700D01*
X14752300Y-13232300D02*
X14777700Y-13257700D01*
X14777700Y-13232300D02*
X14752300Y-13257700D01*
X14812300Y-7287300D02*
X14837700Y-7312700D01*
X14837700Y-7287300D02*
X14812300Y-7312700D01*
X14827300Y-6002300D02*
X14852700Y-6027700D01*
X14852700Y-6002300D02*
X14827300Y-6027700D01*
X14829800Y-9927300D02*
X14855200Y-9952700D01*
X14855200Y-9927300D02*
X14829800Y-9952700D01*
X14839284Y-5035939D02*
X14864684Y-5061339D01*
X14864684Y-5035939D02*
X14839284Y-5061339D01*
X14839300Y-4886300D02*
X14864700Y-4911700D01*
X14864700Y-4886300D02*
X14839300Y-4911700D01*
X14846300Y-5337300D02*
X14871700Y-5362700D01*
X14871700Y-5337300D02*
X14846300Y-5362700D01*
X14852300Y-9747300D02*
X14877700Y-9772700D01*
X14877700Y-9747300D02*
X14852300Y-9772700D01*
X14869800Y-4289800D02*
X14895200Y-4315200D01*
X14895200Y-4289800D02*
X14869800Y-4315200D01*
X14869800Y-4592300D02*
X14895200Y-4617700D01*
X14895200Y-4592300D02*
X14869800Y-4617700D01*
X14877300Y-6562300D02*
X14902700Y-6587700D01*
X14902700Y-6562300D02*
X14877300Y-6587700D01*
X14899800Y-7339800D02*
X14925200Y-7365200D01*
X14925200Y-7339800D02*
X14899800Y-7365200D01*
X14912300Y-9682300D02*
X14937700Y-9707700D01*
X14937700Y-9682300D02*
X14912300Y-9707700D01*
X14914800Y-12749800D02*
X14940200Y-12775200D01*
X14940200Y-12749800D02*
X14914800Y-12775200D01*
X14917300Y-12877300D02*
X14942700Y-12902700D01*
X14942700Y-12877300D02*
X14917300Y-12902700D01*
X14918300Y-4713300D02*
X14943700Y-4738700D01*
X14943700Y-4713300D02*
X14918300Y-4738700D01*
X14927300Y-5777300D02*
X14952700Y-5802700D01*
X14952700Y-5777300D02*
X14927300Y-5802700D01*
X14932300Y-5532300D02*
X14957700Y-5557700D01*
X14957700Y-5532300D02*
X14932300Y-5557700D01*
X14942300Y-4362300D02*
X14967700Y-4387700D01*
X14967700Y-4362300D02*
X14942300Y-4387700D01*
X14942300Y-4519800D02*
X14967700Y-4545200D01*
X14967700Y-4519800D02*
X14942300Y-4545200D01*
X14944800Y-7504800D02*
X14970200Y-7530200D01*
X14970200Y-7504800D02*
X14944800Y-7530200D01*
X14952300Y-10114800D02*
X14977700Y-10140200D01*
X14977700Y-10114800D02*
X14952300Y-10140200D01*
X14974800Y-13257300D02*
X15000200Y-13282700D01*
X15000200Y-13257300D02*
X14974800Y-13282700D01*
X14977300Y-3907300D02*
X15002700Y-3932700D01*
X15002700Y-3907300D02*
X14977300Y-3932700D01*
X14977300Y-3977300D02*
X15002700Y-4002700D01*
X15002700Y-3977300D02*
X14977300Y-4002700D01*
X14977300Y-4047300D02*
X15002700Y-4072700D01*
X15002700Y-4047300D02*
X14977300Y-4072700D01*
X14977300Y-4117300D02*
X15002700Y-4142700D01*
X15002700Y-4117300D02*
X14977300Y-4142700D01*
X14977300Y-4187300D02*
X15002700Y-4212700D01*
X15002700Y-4187300D02*
X14977300Y-4212700D01*
X14977300Y-12782300D02*
X15002700Y-12807700D01*
X15002700Y-12782300D02*
X14977300Y-12807700D01*
X15014800Y-12659800D02*
X15040200Y-12685200D01*
X15040200Y-12659800D02*
X15014800Y-12685200D01*
X15027300Y-6002300D02*
X15052700Y-6027700D01*
X15052700Y-6002300D02*
X15027300Y-6027700D01*
X15042300Y-6397300D02*
X15067700Y-6422700D01*
X15067700Y-6397300D02*
X15042300Y-6422700D01*
X15042300Y-7502300D02*
X15067700Y-7527700D01*
X15067700Y-7502300D02*
X15042300Y-7527700D01*
X15052300Y-13107300D02*
X15077700Y-13132700D01*
X15077700Y-13107300D02*
X15052300Y-13132700D01*
X15054800Y-10917300D02*
X15080200Y-10942700D01*
X15080200Y-10917300D02*
X15054800Y-10942700D01*
X15080300Y-5222300D02*
X15105700Y-5247700D01*
X15105700Y-5222300D02*
X15080300Y-5247700D01*
X15081300Y-4879300D02*
X15106700Y-4904700D01*
X15106700Y-4879300D02*
X15081300Y-4904700D01*
X15082300Y-5057300D02*
X15107700Y-5082700D01*
X15107700Y-5057300D02*
X15082300Y-5082700D01*
X15087300Y-12862300D02*
X15112700Y-12887700D01*
X15112700Y-12862300D02*
X15087300Y-12887700D01*
X15094800Y-10114800D02*
X15120200Y-10140200D01*
X15120200Y-10114800D02*
X15094800Y-10140200D01*
X15097300Y-3907300D02*
X15122700Y-3932700D01*
X15122700Y-3907300D02*
X15097300Y-3932700D01*
X15097300Y-3977300D02*
X15122700Y-4002700D01*
X15122700Y-3977300D02*
X15097300Y-4002700D01*
X15097300Y-4047300D02*
X15122700Y-4072700D01*
X15122700Y-4047300D02*
X15097300Y-4072700D01*
X15097300Y-4117300D02*
X15122700Y-4142700D01*
X15122700Y-4117300D02*
X15097300Y-4142700D01*
X15097300Y-4187300D02*
X15122700Y-4212700D01*
X15122700Y-4187300D02*
X15097300Y-4212700D01*
X15114800Y-7424800D02*
X15140200Y-7450200D01*
X15140200Y-7424800D02*
X15114800Y-7450200D01*
X15127300Y-5777300D02*
X15152700Y-5802700D01*
X15152700Y-5777300D02*
X15127300Y-5802700D01*
X15136300Y-4662300D02*
X15161700Y-4687700D01*
X15161700Y-4662300D02*
X15136300Y-4687700D01*
X15147300Y-10052300D02*
X15172700Y-10077700D01*
X15172700Y-10052300D02*
X15147300Y-10077700D01*
X15155300Y-3755300D02*
X15180700Y-3780700D01*
X15180700Y-3755300D02*
X15155300Y-3780700D01*
X15162300Y-13319800D02*
X15187700Y-13345200D01*
X15187700Y-13319800D02*
X15162300Y-13345200D01*
X15172300Y-12657300D02*
X15197700Y-12682700D01*
X15197700Y-12657300D02*
X15172300Y-12682700D01*
X15217300Y-12819800D02*
X15242700Y-12845200D01*
X15242700Y-12819800D02*
X15217300Y-12845200D01*
X15227300Y-6002300D02*
X15252700Y-6027700D01*
X15252700Y-6002300D02*
X15227300Y-6027700D01*
X15237300Y-5477300D02*
X15262700Y-5502700D01*
X15262700Y-5477300D02*
X15237300Y-5502700D01*
X15259300Y-3873300D02*
X15284700Y-3898700D01*
X15284700Y-3873300D02*
X15259300Y-3898700D01*
X15262300Y-5227300D02*
X15287700Y-5252700D01*
X15287700Y-5227300D02*
X15262300Y-5252700D01*
X15262300Y-10687300D02*
X15287700Y-10712700D01*
X15287700Y-10687300D02*
X15262300Y-10712700D01*
X15263300Y-5057300D02*
X15288700Y-5082700D01*
X15288700Y-5057300D02*
X15263300Y-5082700D01*
X15267300Y-4880300D02*
X15292700Y-4905700D01*
X15292700Y-4880300D02*
X15267300Y-4905700D01*
X15277300Y-13067300D02*
X15302700Y-13092700D01*
X15302700Y-13067300D02*
X15277300Y-13092700D01*
X15302300Y-13237300D02*
X15327700Y-13262700D01*
X15327700Y-13237300D02*
X15302300Y-13262700D01*
X15312300Y-4503300D02*
X15337700Y-4528700D01*
X15337700Y-4503300D02*
X15312300Y-4528700D01*
X15327300Y-5777300D02*
X15352700Y-5802700D01*
X15352700Y-5777300D02*
X15327300Y-5802700D01*
X15332300Y-12657300D02*
X15357700Y-12682700D01*
X15357700Y-12657300D02*
X15332300Y-12682700D01*
X15361300Y-3755300D02*
X15386700Y-3780700D01*
X15386700Y-3755300D02*
X15361300Y-3780700D01*
X15367300Y-12819800D02*
X15392700Y-12845200D01*
X15392700Y-12819800D02*
X15367300Y-12845200D01*
X15380300Y-9930301D02*
X15405700Y-9955701D01*
X15405700Y-9930301D02*
X15380300Y-9955701D01*
X15387300Y-4432300D02*
X15412700Y-4457700D01*
X15412700Y-4432300D02*
X15387300Y-4457700D01*
X15387300Y-5477300D02*
X15412700Y-5502700D01*
X15412700Y-5477300D02*
X15387300Y-5502700D01*
X15416300Y-5056300D02*
X15441700Y-5081700D01*
X15441700Y-5056300D02*
X15416300Y-5081700D01*
X15417300Y-5225300D02*
X15442700Y-5250700D01*
X15442700Y-5225300D02*
X15417300Y-5250700D01*
X15417300Y-12492300D02*
X15442700Y-12517700D01*
X15442700Y-12492300D02*
X15417300Y-12517700D01*
X15420300Y-4880300D02*
X15445700Y-4905700D01*
X15445700Y-4880300D02*
X15420300Y-4905700D01*
X15427300Y-6002300D02*
X15452700Y-6027700D01*
X15452700Y-6002300D02*
X15427300Y-6027700D01*
X15477300Y-9932300D02*
X15502700Y-9957700D01*
X15502700Y-9932300D02*
X15477300Y-9957700D01*
X15486300Y-5471300D02*
X15511700Y-5496700D01*
X15511700Y-5471300D02*
X15486300Y-5496700D01*
X15487300Y-10222300D02*
X15512700Y-10247700D01*
X15512700Y-10222300D02*
X15487300Y-10247700D01*
X15488300Y-4433300D02*
X15513700Y-4458700D01*
X15513700Y-4433300D02*
X15488300Y-4458700D01*
X15497300Y-12657300D02*
X15522700Y-12682700D01*
X15522700Y-12657300D02*
X15497300Y-12682700D01*
X15542300Y-10002300D02*
X15567700Y-10027700D01*
X15567700Y-10002300D02*
X15542300Y-10027700D01*
X15549800Y-13007300D02*
X15575200Y-13032700D01*
X15575200Y-13007300D02*
X15549800Y-13032700D01*
X15568300Y-10276300D02*
X15593700Y-10301700D01*
X15593700Y-10276300D02*
X15568300Y-10301700D01*
X15577300Y-5777300D02*
X15602700Y-5802700D01*
X15602700Y-5777300D02*
X15577300Y-5802700D01*
X15586300Y-13768300D02*
X15611700Y-13793700D01*
X15611700Y-13768300D02*
X15586300Y-13793700D01*
X15592300Y-10537300D02*
X15617700Y-10562700D01*
X15617700Y-10537300D02*
X15592300Y-10562700D01*
X15610300Y-10404300D02*
X15635700Y-10429700D01*
X15635700Y-10404300D02*
X15610300Y-10429700D01*
X15614800Y-13072300D02*
X15640200Y-13097700D01*
X15640200Y-13072300D02*
X15614800Y-13097700D01*
X15634300Y-10316300D02*
X15659700Y-10341700D01*
X15659700Y-10316300D02*
X15634300Y-10341700D01*
X15660300Y-13840300D02*
X15685700Y-13865700D01*
X15685700Y-13840300D02*
X15660300Y-13865700D01*
X15662300Y-5086300D02*
X15687700Y-5111700D01*
X15687700Y-5086300D02*
X15662300Y-5111700D01*
X15662300Y-12657300D02*
X15687700Y-12682700D01*
X15687700Y-12657300D02*
X15662300Y-12682700D01*
X15662300Y-13212300D02*
X15687700Y-13237700D01*
X15687700Y-13212300D02*
X15662300Y-13237700D01*
X15679800Y-13332300D02*
X15705200Y-13357700D01*
X15705200Y-13332300D02*
X15679800Y-13357700D01*
X15682300Y-4932300D02*
X15707700Y-4957700D01*
X15707700Y-4932300D02*
X15682300Y-4957700D01*
X15727300Y-4672300D02*
X15752700Y-4697700D01*
X15752700Y-4672300D02*
X15727300Y-4697700D01*
X15727300Y-5286939D02*
X15752700Y-5312339D01*
X15752700Y-5286939D02*
X15727300Y-5312339D01*
X15764800Y-13417300D02*
X15790200Y-13442700D01*
X15790200Y-13417300D02*
X15764800Y-13442700D01*
X15769299Y-10325301D02*
X15794699Y-10350701D01*
X15794699Y-10325301D02*
X15769299Y-10350701D01*
X15773300Y-13840300D02*
X15798700Y-13865700D01*
X15798700Y-13840300D02*
X15773300Y-13865700D01*
X15792300Y-4797300D02*
X15817700Y-4822700D01*
X15817700Y-4797300D02*
X15792300Y-4822700D01*
X15802300Y-5637300D02*
X15827700Y-5662700D01*
X15827700Y-5637300D02*
X15802300Y-5662700D01*
X15804800Y-12719800D02*
X15830200Y-12745200D01*
X15830200Y-12719800D02*
X15804800Y-12745200D01*
X15844300Y-13770300D02*
X15869700Y-13795700D01*
X15869700Y-13770300D02*
X15844300Y-13795700D01*
X15852300Y-9737300D02*
X15877700Y-9762700D01*
X15877700Y-9737300D02*
X15852300Y-9762700D01*
X15877300Y-5567300D02*
X15902700Y-5592700D01*
X15902700Y-5567300D02*
X15877300Y-5592700D01*
X15884800Y-12809800D02*
X15910200Y-12835200D01*
X15910200Y-12809800D02*
X15884800Y-12835200D01*
X15884800Y-13209800D02*
X15910200Y-13235200D01*
X15910200Y-13209800D02*
X15884800Y-13235200D01*
X15902300Y-4917300D02*
X15927700Y-4942700D01*
X15927700Y-4917300D02*
X15902300Y-4942700D01*
X15902300Y-7180300D02*
X15927700Y-7205700D01*
X15927700Y-7180300D02*
X15902300Y-7205700D01*
X15917300Y-9672300D02*
X15942700Y-9697700D01*
X15942700Y-9672300D02*
X15917300Y-9697700D01*
X15934800Y-13074800D02*
X15960200Y-13100200D01*
X15960200Y-13074800D02*
X15934800Y-13100200D01*
X15952300Y-5637300D02*
X15977700Y-5662700D01*
X15977700Y-5637300D02*
X15952300Y-5662700D01*
X15957300Y-10677300D02*
X15982700Y-10702700D01*
X15982700Y-10677300D02*
X15957300Y-10702700D01*
X15978300Y-7252300D02*
X16003700Y-7277700D01*
X16003700Y-7252300D02*
X15978300Y-7277700D01*
X15999800Y-13009800D02*
X16025200Y-13035200D01*
X16025200Y-13009800D02*
X15999800Y-13035200D01*
X16009800Y-12639800D02*
X16035200Y-12665200D01*
X16035200Y-12639800D02*
X16009800Y-12665200D01*
X16017300Y-13129800D02*
X16042700Y-13155200D01*
X16042700Y-13129800D02*
X16017300Y-13155200D01*
X16027300Y-5567300D02*
X16052700Y-5592700D01*
X16052700Y-5567300D02*
X16027300Y-5592700D01*
X16078300Y-7253300D02*
X16103700Y-7278700D01*
X16103700Y-7253300D02*
X16078300Y-7278700D01*
X16119800Y-13694800D02*
X16145200Y-13720200D01*
X16145200Y-13694800D02*
X16119800Y-13720200D01*
X16127300Y-5569800D02*
X16152700Y-5595200D01*
X16152700Y-5569800D02*
X16127300Y-5595200D01*
X16127300Y-13144300D02*
X16152700Y-13169700D01*
X16152700Y-13144300D02*
X16127300Y-13169700D01*
X16132300Y-9792300D02*
X16157700Y-9817700D01*
X16157700Y-9792300D02*
X16132300Y-9817700D01*
X16149300Y-7182300D02*
X16174700Y-7207700D01*
X16174700Y-7182300D02*
X16149300Y-7207700D01*
X16254300Y-5888300D02*
X16279700Y-5913700D01*
X16279700Y-5888300D02*
X16254300Y-5913700D01*
X16259300Y-5479300D02*
X16284700Y-5504700D01*
X16284700Y-5479300D02*
X16259300Y-5504700D01*
X16287300Y-8667300D02*
X16312700Y-8692700D01*
X16312700Y-8667300D02*
X16287300Y-8692700D01*
X16348300Y-5562300D02*
X16373700Y-5587700D01*
X16373700Y-5562300D02*
X16348300Y-5587700D01*
X16397300Y-13522300D02*
X16422700Y-13547700D01*
X16422700Y-13522300D02*
X16397300Y-13547700D01*
X16609300Y-13449300D02*
X16634700Y-13474700D01*
X16634700Y-13449300D02*
X16609300Y-13474700D01*
X16609300Y-13594300D02*
X16634700Y-13619700D01*
X16634700Y-13594300D02*
X16609300Y-13619700D01*
X16680300Y-13523300D02*
X16705700Y-13548700D01*
X16705700Y-13523300D02*
X16680300Y-13548700D01*
X16752300Y-11637300D02*
X16777700Y-11662700D01*
X16777700Y-11637300D02*
X16752300Y-11662700D01*
X16817300Y-11572300D02*
X16842700Y-11597700D01*
X16842700Y-11572300D02*
X16817300Y-11597700D01*
X17347300Y-8767300D02*
X17372700Y-8792700D01*
X17372700Y-8767300D02*
X17347300Y-8792700D01*
X17502300Y-5017300D02*
X17527700Y-5042700D01*
X17527700Y-5017300D02*
X17502300Y-5042700D01*
X17502300Y-5247300D02*
X17527700Y-5272700D01*
X17527700Y-5247300D02*
X17502300Y-5272700D01*
X17552300Y-10837300D02*
X17577700Y-10862700D01*
X17577700Y-10837300D02*
X17552300Y-10862700D01*
X17607300Y-4937300D02*
X17632700Y-4962700D01*
X17632700Y-4937300D02*
X17607300Y-4962700D01*
X17607300Y-5327300D02*
X17632700Y-5352700D01*
X17632700Y-5327300D02*
X17607300Y-5352700D01*
X17617300Y-10772300D02*
X17642700Y-10797700D01*
X17642700Y-10772300D02*
X17617300Y-10797700D01*
X15208560Y-10323560D02*
X15233960Y-10348960D01*
X15233960Y-10323560D02*
X15208560Y-10348960D01*
X15208560Y-10402300D02*
X15233960Y-10427700D01*
X15233960Y-10402300D02*
X15208560Y-10427700D01*
X15208560Y-10481040D02*
X15233960Y-10506440D01*
X15233960Y-10481040D02*
X15208560Y-10506440D01*
X15287300Y-10323560D02*
X15312700Y-10348960D01*
X15312700Y-10323560D02*
X15287300Y-10348960D01*
X15287300Y-10402300D02*
X15312700Y-10427700D01*
X15312700Y-10402300D02*
X15287300Y-10427700D01*
X15287300Y-10481040D02*
X15312700Y-10506440D01*
X15312700Y-10481040D02*
X15287300Y-10506440D01*
X15366040Y-10323560D02*
X15391440Y-10348960D01*
X15391440Y-10323560D02*
X15366040Y-10348960D01*
X15366040Y-10402300D02*
X15391440Y-10427700D01*
X15391440Y-10402300D02*
X15366040Y-10427700D01*
X15366040Y-10481040D02*
X15391440Y-10506440D01*
X15391440Y-10481040D02*
X15366040Y-10506440D01*
X14047930Y-13467300D02*
X14073330Y-13492700D01*
X14073330Y-13467300D02*
X14047930Y-13492700D01*
X14126670Y-13467300D02*
X14152070Y-13492700D01*
X14152070Y-13467300D02*
X14126670Y-13492700D01*
X12690430Y-12988560D02*
X12715830Y-13013960D01*
X12715830Y-12988560D02*
X12690430Y-13013960D01*
X12690430Y-13067300D02*
X12715830Y-13092700D01*
X12715830Y-13067300D02*
X12690430Y-13092700D01*
X12690430Y-13146040D02*
X12715830Y-13171440D01*
X12715830Y-13146040D02*
X12690430Y-13171440D01*
X12769170Y-12988560D02*
X12794570Y-13013960D01*
X12794570Y-12988560D02*
X12769170Y-13013960D01*
X12769170Y-13067300D02*
X12794570Y-13092700D01*
X12794570Y-13067300D02*
X12769170Y-13092700D01*
X12769170Y-13146040D02*
X12794570Y-13171440D01*
X12794570Y-13146040D02*
X12769170Y-13171440D01*
X13535000Y-11235000D02*
G75*
G03*
X13535000Y-11235000I-20000J0D01*
G01*
X14566000Y-13780000D02*
X14566000Y-13830000D01*
X14541000Y-13805000D02*
X14591000Y-13805000D01*
X14581000Y-13835000D02*
X14581000Y-13775000D01*
X14551000Y-13835000D02*
X14551000Y-13775000D01*
X14581000Y-13775000D02*
G75*
G03*
X14551000Y-13775000I-15000J0D01*
G01*
X14551000Y-13835000D02*
G75*
G03*
X14581000Y-13835000I15000J0D01*
G01*
X14602000Y-13185000D02*
X14602000Y-13235000D01*
X14577000Y-13210000D02*
X14627000Y-13210000D01*
X14617000Y-13240000D02*
X14617000Y-13180000D01*
X14587000Y-13240000D02*
X14587000Y-13180000D01*
X14617000Y-13180000D02*
G75*
G03*
X14587000Y-13180000I-15000J0D01*
G01*
X14587000Y-13240000D02*
G75*
G03*
X14617000Y-13240000I15000J0D01*
G01*
X15428000Y-13185000D02*
X15428000Y-13235000D01*
X15403000Y-13210000D02*
X15453000Y-13210000D01*
X15443000Y-13240000D02*
X15443000Y-13180000D01*
X15413000Y-13240000D02*
X15413000Y-13180000D01*
X15443000Y-13180000D02*
G75*
G03*
X15413000Y-13180000I-15000J0D01*
G01*
X15413000Y-13240000D02*
G75*
G03*
X15443000Y-13240000I15000J0D01*
G01*
X15464000Y-13780000D02*
X15464000Y-13830000D01*
X15439000Y-13805000D02*
X15489000Y-13805000D01*
X15479000Y-13835000D02*
X15479000Y-13775000D01*
X15449000Y-13835000D02*
X15449000Y-13775000D01*
X15479000Y-13775000D02*
G75*
G03*
X15449000Y-13775000I-15000J0D01*
G01*
X15449000Y-13835000D02*
G75*
G03*
X15479000Y-13835000I15000J0D01*
G01*
D12*
X286429Y-465714D02*
X286429Y-165714D01*
X357857Y-165714D01*
X400714Y-180000D01*
X429286Y-208571D01*
X443571Y-237143D01*
X457857Y-294286D01*
X457857Y-337143D01*
X443571Y-394286D01*
X429286Y-422857D01*
X400714Y-451428D01*
X357857Y-465714D01*
X286429Y-465714D01*
X586429Y-465714D02*
X586429Y-265714D01*
X586429Y-322857D02*
X600714Y-294286D01*
X615000Y-280000D01*
X643571Y-265714D01*
X672143Y-265714D01*
X772143Y-465714D02*
X772143Y-265714D01*
X772143Y-165714D02*
X757857Y-180000D01*
X772143Y-194286D01*
X786428Y-180000D01*
X772143Y-165714D01*
X772143Y-194286D01*
X957857Y-465714D02*
X929286Y-451428D01*
X915000Y-422857D01*
X915000Y-165714D01*
X1115000Y-465714D02*
X1086429Y-451428D01*
X1072143Y-422857D01*
X1072143Y-165714D01*
X1457857Y-465714D02*
X1457857Y-165714D01*
X1557857Y-380000D01*
X1657857Y-165714D01*
X1657857Y-465714D01*
X1929286Y-465714D02*
X1929286Y-308571D01*
X1915000Y-280000D01*
X1886428Y-265714D01*
X1829286Y-265714D01*
X1800714Y-280000D01*
X1929286Y-451428D02*
X1900714Y-465714D01*
X1829286Y-465714D01*
X1800714Y-451428D01*
X1786428Y-422857D01*
X1786428Y-394286D01*
X1800714Y-365714D01*
X1829286Y-351428D01*
X1900714Y-351428D01*
X1929286Y-337143D01*
X2072143Y-265714D02*
X2072143Y-565714D01*
X2072143Y-280000D02*
X2100714Y-265714D01*
X2157857Y-265714D01*
X2186429Y-280000D01*
X2200714Y-294286D01*
X2215000Y-322857D01*
X2215000Y-408571D01*
X2200714Y-437143D01*
X2186429Y-451428D01*
X2157857Y-465714D01*
X2100714Y-465714D01*
X2072143Y-451428D01*
X2343571Y-437143D02*
X2357857Y-451428D01*
X2343571Y-465714D01*
X2329286Y-451428D01*
X2343571Y-437143D01*
X2343571Y-465714D01*
X2343571Y-280000D02*
X2357857Y-294286D01*
X2343571Y-308571D01*
X2329286Y-294286D01*
X2343571Y-280000D01*
X2343571Y-308571D01*
X-25400Y-947300D02*
X0Y-972700D01*
X0Y-947300D02*
X-25400Y-972700D01*
X343571Y-795714D02*
X372143Y-795714D01*
X400714Y-810000D01*
X415000Y-824286D01*
X429286Y-852857D01*
X443571Y-910000D01*
X443571Y-981428D01*
X429286Y-1038571D01*
X415000Y-1067143D01*
X400714Y-1081429D01*
X372143Y-1095714D01*
X343571Y-1095714D01*
X315000Y-1081429D01*
X300714Y-1067143D01*
X286429Y-1038571D01*
X272143Y-981428D01*
X272143Y-910000D01*
X286429Y-852857D01*
X300714Y-824286D01*
X315000Y-810000D01*
X343571Y-795714D01*
X572143Y-1067143D02*
X586429Y-1081429D01*
X572143Y-1095714D01*
X557857Y-1081429D01*
X572143Y-1067143D01*
X572143Y-1095714D01*
X700714Y-824286D02*
X715000Y-810000D01*
X743571Y-795714D01*
X815000Y-795714D01*
X843571Y-810000D01*
X857857Y-824286D01*
X872143Y-852857D01*
X872143Y-881428D01*
X857857Y-924286D01*
X686429Y-1095714D01*
X872143Y-1095714D01*
X1143571Y-795714D02*
X1000714Y-795714D01*
X986428Y-938571D01*
X1000714Y-924286D01*
X1029286Y-910000D01*
X1100714Y-910000D01*
X1129286Y-924286D01*
X1143571Y-938571D01*
X1157857Y-967143D01*
X1157857Y-1038571D01*
X1143571Y-1067143D01*
X1129286Y-1081429D01*
X1100714Y-1095714D01*
X1029286Y-1095714D01*
X1000714Y-1081429D01*
X986428Y-1067143D01*
X1286429Y-1095714D02*
X1286429Y-895714D01*
X1286429Y-924286D02*
X1300714Y-910000D01*
X1329286Y-895714D01*
X1372143Y-895714D01*
X1400714Y-910000D01*
X1415000Y-938571D01*
X1415000Y-1095714D01*
X1415000Y-938571D02*
X1429286Y-910000D01*
X1457857Y-895714D01*
X1500714Y-895714D01*
X1529286Y-910000D01*
X1543571Y-938571D01*
X1543571Y-1095714D01*
X1686428Y-1095714D02*
X1686428Y-895714D01*
X1686428Y-924286D02*
X1700714Y-910000D01*
X1729286Y-895714D01*
X1772143Y-895714D01*
X1800714Y-910000D01*
X1815000Y-938571D01*
X1815000Y-1095714D01*
X1815000Y-938571D02*
X1829286Y-910000D01*
X1857857Y-895714D01*
X1900714Y-895714D01*
X1929286Y-910000D01*
X1943571Y-938571D01*
X1943571Y-1095714D01*
X2529286Y-781428D02*
X2272143Y-1167143D01*
X2915000Y-795714D02*
X2943571Y-795714D01*
X2972143Y-810000D01*
X2986428Y-824286D01*
X3000714Y-852857D01*
X3015000Y-910000D01*
X3015000Y-981428D01*
X3000714Y-1038571D01*
X2986428Y-1067143D01*
X2972143Y-1081429D01*
X2943571Y-1095714D01*
X2915000Y-1095714D01*
X2886428Y-1081429D01*
X2872143Y-1067143D01*
X2857857Y-1038571D01*
X2843571Y-981428D01*
X2843571Y-910000D01*
X2857857Y-852857D01*
X2872143Y-824286D01*
X2886428Y-810000D01*
X2915000Y-795714D01*
X3143571Y-1067143D02*
X3157857Y-1081429D01*
X3143571Y-1095714D01*
X3129286Y-1081429D01*
X3143571Y-1067143D01*
X3143571Y-1095714D01*
X3343571Y-795714D02*
X3372143Y-795714D01*
X3400714Y-810000D01*
X3415000Y-824286D01*
X3429286Y-852857D01*
X3443571Y-910000D01*
X3443571Y-981428D01*
X3429286Y-1038571D01*
X3415000Y-1067143D01*
X3400714Y-1081429D01*
X3372143Y-1095714D01*
X3343571Y-1095714D01*
X3315000Y-1081429D01*
X3300714Y-1067143D01*
X3286428Y-1038571D01*
X3272143Y-981428D01*
X3272143Y-910000D01*
X3286428Y-852857D01*
X3300714Y-824286D01*
X3315000Y-810000D01*
X3343571Y-795714D01*
X3729286Y-1095714D02*
X3557857Y-1095714D01*
X3643571Y-1095714D02*
X3643571Y-795714D01*
X3615000Y-838571D01*
X3586428Y-867143D01*
X3557857Y-881428D01*
X3915000Y-795714D02*
X3943571Y-795714D01*
X3972143Y-810000D01*
X3986428Y-824286D01*
X4000714Y-852857D01*
X4015000Y-910000D01*
X4015000Y-981428D01*
X4000714Y-1038571D01*
X3986428Y-1067143D01*
X3972143Y-1081429D01*
X3943571Y-1095714D01*
X3915000Y-1095714D01*
X3886428Y-1081429D01*
X3872143Y-1067143D01*
X3857857Y-1038571D01*
X3843571Y-981428D01*
X3843571Y-910000D01*
X3857857Y-852857D01*
X3872143Y-824286D01*
X3886428Y-810000D01*
X3915000Y-795714D01*
X4129286Y-795714D02*
X4129286Y-852857D01*
X4243571Y-795714D02*
X4243571Y-852857D01*
X4686429Y-1210000D02*
X4672143Y-1195714D01*
X4643571Y-1152857D01*
X4629286Y-1124286D01*
X4615000Y-1081429D01*
X4600714Y-1010000D01*
X4600714Y-952857D01*
X4615000Y-881428D01*
X4629286Y-838571D01*
X4643571Y-810000D01*
X4672143Y-767143D01*
X4686429Y-752857D01*
X4772143Y-795714D02*
X4957857Y-795714D01*
X4857857Y-910000D01*
X4900714Y-910000D01*
X4929286Y-924286D01*
X4943571Y-938571D01*
X4957857Y-967143D01*
X4957857Y-1038571D01*
X4943571Y-1067143D01*
X4929286Y-1081429D01*
X4900714Y-1095714D01*
X4815000Y-1095714D01*
X4786429Y-1081429D01*
X4772143Y-1067143D01*
X5143571Y-795714D02*
X5172143Y-795714D01*
X5200714Y-810000D01*
X5215000Y-824286D01*
X5229286Y-852857D01*
X5243571Y-910000D01*
X5243571Y-981428D01*
X5229286Y-1038571D01*
X5215000Y-1067143D01*
X5200714Y-1081429D01*
X5172143Y-1095714D01*
X5143571Y-1095714D01*
X5115000Y-1081429D01*
X5100714Y-1067143D01*
X5086429Y-1038571D01*
X5072143Y-981428D01*
X5072143Y-910000D01*
X5086429Y-852857D01*
X5100714Y-824286D01*
X5115000Y-810000D01*
X5143571Y-795714D01*
X5500714Y-795714D02*
X5443571Y-795714D01*
X5415000Y-810000D01*
X5400714Y-824286D01*
X5372143Y-867143D01*
X5357857Y-924286D01*
X5357857Y-1038571D01*
X5372143Y-1067143D01*
X5386429Y-1081429D01*
X5415000Y-1095714D01*
X5472143Y-1095714D01*
X5500714Y-1081429D01*
X5515000Y-1067143D01*
X5529286Y-1038571D01*
X5529286Y-967143D01*
X5515000Y-938571D01*
X5500714Y-924286D01*
X5472143Y-910000D01*
X5415000Y-910000D01*
X5386429Y-924286D01*
X5372143Y-938571D01*
X5357857Y-967143D01*
X5886428Y-1095714D02*
X5886428Y-795714D01*
X6015000Y-1095714D02*
X6015000Y-938571D01*
X6000714Y-910000D01*
X5972143Y-895714D01*
X5929286Y-895714D01*
X5900714Y-910000D01*
X5886428Y-924286D01*
X6200714Y-1095714D02*
X6172143Y-1081429D01*
X6157857Y-1067143D01*
X6143571Y-1038571D01*
X6143571Y-952857D01*
X6157857Y-924286D01*
X6172143Y-910000D01*
X6200714Y-895714D01*
X6243571Y-895714D01*
X6272143Y-910000D01*
X6286428Y-924286D01*
X6300714Y-952857D01*
X6300714Y-1038571D01*
X6286428Y-1067143D01*
X6272143Y-1081429D01*
X6243571Y-1095714D01*
X6200714Y-1095714D01*
X6472143Y-1095714D02*
X6443571Y-1081429D01*
X6429286Y-1052857D01*
X6429286Y-795714D01*
X6700714Y-1081429D02*
X6672143Y-1095714D01*
X6615000Y-1095714D01*
X6586428Y-1081429D01*
X6572143Y-1052857D01*
X6572143Y-938571D01*
X6586428Y-910000D01*
X6615000Y-895714D01*
X6672143Y-895714D01*
X6700714Y-910000D01*
X6715000Y-938571D01*
X6715000Y-967143D01*
X6572143Y-995714D01*
X6829286Y-1081429D02*
X6857857Y-1095714D01*
X6915000Y-1095714D01*
X6943571Y-1081429D01*
X6957857Y-1052857D01*
X6957857Y-1038571D01*
X6943571Y-1010000D01*
X6915000Y-995714D01*
X6872143Y-995714D01*
X6843571Y-981428D01*
X6829286Y-952857D01*
X6829286Y-938571D01*
X6843571Y-910000D01*
X6872143Y-895714D01*
X6915000Y-895714D01*
X6943571Y-910000D01*
X7057857Y-1210000D02*
X7072143Y-1195714D01*
X7100714Y-1152857D01*
X7115000Y-1124286D01*
X7129286Y-1081429D01*
X7143571Y-1010000D01*
X7143571Y-952857D01*
X7129286Y-881428D01*
X7115000Y-838571D01*
X7100714Y-810000D01*
X7072143Y-767143D01*
X7057857Y-752857D01*
X0Y-1356000D02*
G75*
G03*
X0Y-1356000I-20000J0D01*
G01*
X343571Y-1191714D02*
X372143Y-1191714D01*
X400714Y-1206000D01*
X415000Y-1220286D01*
X429286Y-1248857D01*
X443571Y-1306000D01*
X443571Y-1377429D01*
X429286Y-1434571D01*
X415000Y-1463143D01*
X400714Y-1477428D01*
X372143Y-1491714D01*
X343571Y-1491714D01*
X315000Y-1477428D01*
X300714Y-1463143D01*
X286429Y-1434571D01*
X272143Y-1377429D01*
X272143Y-1306000D01*
X286429Y-1248857D01*
X300714Y-1220286D01*
X315000Y-1206000D01*
X343571Y-1191714D01*
X572143Y-1463143D02*
X586429Y-1477428D01*
X572143Y-1491714D01*
X557857Y-1477428D01*
X572143Y-1463143D01*
X572143Y-1491714D01*
X843571Y-1291714D02*
X843571Y-1491714D01*
X772143Y-1177429D02*
X700714Y-1391714D01*
X886428Y-1391714D01*
X1057857Y-1191714D02*
X1086429Y-1191714D01*
X1115000Y-1206000D01*
X1129286Y-1220286D01*
X1143571Y-1248857D01*
X1157857Y-1306000D01*
X1157857Y-1377429D01*
X1143571Y-1434571D01*
X1129286Y-1463143D01*
X1115000Y-1477428D01*
X1086429Y-1491714D01*
X1057857Y-1491714D01*
X1029286Y-1477428D01*
X1015000Y-1463143D01*
X1000714Y-1434571D01*
X986428Y-1377429D01*
X986428Y-1306000D01*
X1000714Y-1248857D01*
X1015000Y-1220286D01*
X1029286Y-1206000D01*
X1057857Y-1191714D01*
X1286429Y-1491714D02*
X1286429Y-1291714D01*
X1286429Y-1320286D02*
X1300714Y-1306000D01*
X1329286Y-1291714D01*
X1372143Y-1291714D01*
X1400714Y-1306000D01*
X1415000Y-1334571D01*
X1415000Y-1491714D01*
X1415000Y-1334571D02*
X1429286Y-1306000D01*
X1457857Y-1291714D01*
X1500714Y-1291714D01*
X1529286Y-1306000D01*
X1543571Y-1334571D01*
X1543571Y-1491714D01*
X1686428Y-1491714D02*
X1686428Y-1291714D01*
X1686428Y-1320286D02*
X1700714Y-1306000D01*
X1729286Y-1291714D01*
X1772143Y-1291714D01*
X1800714Y-1306000D01*
X1815000Y-1334571D01*
X1815000Y-1491714D01*
X1815000Y-1334571D02*
X1829286Y-1306000D01*
X1857857Y-1291714D01*
X1900714Y-1291714D01*
X1929286Y-1306000D01*
X1943571Y-1334571D01*
X1943571Y-1491714D01*
X2529286Y-1177429D02*
X2272143Y-1563143D01*
X2915000Y-1191714D02*
X2943571Y-1191714D01*
X2972143Y-1206000D01*
X2986428Y-1220286D01*
X3000714Y-1248857D01*
X3015000Y-1306000D01*
X3015000Y-1377429D01*
X3000714Y-1434571D01*
X2986428Y-1463143D01*
X2972143Y-1477428D01*
X2943571Y-1491714D01*
X2915000Y-1491714D01*
X2886428Y-1477428D01*
X2872143Y-1463143D01*
X2857857Y-1434571D01*
X2843571Y-1377429D01*
X2843571Y-1306000D01*
X2857857Y-1248857D01*
X2872143Y-1220286D01*
X2886428Y-1206000D01*
X2915000Y-1191714D01*
X3143571Y-1463143D02*
X3157857Y-1477428D01*
X3143571Y-1491714D01*
X3129286Y-1477428D01*
X3143571Y-1463143D01*
X3143571Y-1491714D01*
X3343571Y-1191714D02*
X3372143Y-1191714D01*
X3400714Y-1206000D01*
X3415000Y-1220286D01*
X3429286Y-1248857D01*
X3443571Y-1306000D01*
X3443571Y-1377429D01*
X3429286Y-1434571D01*
X3415000Y-1463143D01*
X3400714Y-1477428D01*
X3372143Y-1491714D01*
X3343571Y-1491714D01*
X3315000Y-1477428D01*
X3300714Y-1463143D01*
X3286428Y-1434571D01*
X3272143Y-1377429D01*
X3272143Y-1306000D01*
X3286428Y-1248857D01*
X3300714Y-1220286D01*
X3315000Y-1206000D01*
X3343571Y-1191714D01*
X3729286Y-1491714D02*
X3557857Y-1491714D01*
X3643571Y-1491714D02*
X3643571Y-1191714D01*
X3615000Y-1234571D01*
X3586428Y-1263143D01*
X3557857Y-1277429D01*
X3986428Y-1191714D02*
X3929286Y-1191714D01*
X3900714Y-1206000D01*
X3886428Y-1220286D01*
X3857857Y-1263143D01*
X3843571Y-1320286D01*
X3843571Y-1434571D01*
X3857857Y-1463143D01*
X3872143Y-1477428D01*
X3900714Y-1491714D01*
X3957857Y-1491714D01*
X3986428Y-1477428D01*
X4000714Y-1463143D01*
X4015000Y-1434571D01*
X4015000Y-1363143D01*
X4000714Y-1334571D01*
X3986428Y-1320286D01*
X3957857Y-1306000D01*
X3900714Y-1306000D01*
X3872143Y-1320286D01*
X3857857Y-1334571D01*
X3843571Y-1363143D01*
X4129286Y-1191714D02*
X4129286Y-1248857D01*
X4243571Y-1191714D02*
X4243571Y-1248857D01*
X4686429Y-1606000D02*
X4672143Y-1591714D01*
X4643571Y-1548857D01*
X4629286Y-1520286D01*
X4615000Y-1477428D01*
X4600714Y-1406000D01*
X4600714Y-1348857D01*
X4615000Y-1277429D01*
X4629286Y-1234571D01*
X4643571Y-1206000D01*
X4672143Y-1163143D01*
X4686429Y-1148857D01*
X4957857Y-1491714D02*
X4786429Y-1491714D01*
X4872143Y-1491714D02*
X4872143Y-1191714D01*
X4843571Y-1234571D01*
X4815000Y-1263143D01*
X4786429Y-1277429D01*
X5315000Y-1491714D02*
X5315000Y-1191714D01*
X5443571Y-1491714D02*
X5443571Y-1334571D01*
X5429286Y-1306000D01*
X5400714Y-1291714D01*
X5357857Y-1291714D01*
X5329286Y-1306000D01*
X5315000Y-1320286D01*
X5629286Y-1491714D02*
X5600714Y-1477428D01*
X5586429Y-1463143D01*
X5572143Y-1434571D01*
X5572143Y-1348857D01*
X5586429Y-1320286D01*
X5600714Y-1306000D01*
X5629286Y-1291714D01*
X5672143Y-1291714D01*
X5700714Y-1306000D01*
X5715000Y-1320286D01*
X5729286Y-1348857D01*
X5729286Y-1434571D01*
X5715000Y-1463143D01*
X5700714Y-1477428D01*
X5672143Y-1491714D01*
X5629286Y-1491714D01*
X5900714Y-1491714D02*
X5872143Y-1477428D01*
X5857857Y-1448857D01*
X5857857Y-1191714D01*
X6129286Y-1477428D02*
X6100714Y-1491714D01*
X6043571Y-1491714D01*
X6015000Y-1477428D01*
X6000714Y-1448857D01*
X6000714Y-1334571D01*
X6015000Y-1306000D01*
X6043571Y-1291714D01*
X6100714Y-1291714D01*
X6129286Y-1306000D01*
X6143571Y-1334571D01*
X6143571Y-1363143D01*
X6000714Y-1391714D01*
X6243571Y-1606000D02*
X6257857Y-1591714D01*
X6286428Y-1548857D01*
X6300714Y-1520286D01*
X6315000Y-1477428D01*
X6329286Y-1406000D01*
X6329286Y-1348857D01*
X6315000Y-1277429D01*
X6300714Y-1234571D01*
X6286428Y-1206000D01*
X6257857Y-1163143D01*
X6243571Y-1148857D01*
X-25000Y-1727000D02*
X-25000Y-1777000D01*
X-50000Y-1752000D02*
X0Y-1752000D01*
X343571Y-1587714D02*
X372143Y-1587714D01*
X400714Y-1602000D01*
X415000Y-1616286D01*
X429286Y-1644857D01*
X443571Y-1702000D01*
X443571Y-1773428D01*
X429286Y-1830571D01*
X415000Y-1859143D01*
X400714Y-1873428D01*
X372143Y-1887714D01*
X343571Y-1887714D01*
X315000Y-1873428D01*
X300714Y-1859143D01*
X286429Y-1830571D01*
X272143Y-1773428D01*
X272143Y-1702000D01*
X286429Y-1644857D01*
X300714Y-1616286D01*
X315000Y-1602000D01*
X343571Y-1587714D01*
X572143Y-1859143D02*
X586429Y-1873428D01*
X572143Y-1887714D01*
X557857Y-1873428D01*
X572143Y-1859143D01*
X572143Y-1887714D01*
X857857Y-1587714D02*
X715000Y-1587714D01*
X700714Y-1730571D01*
X715000Y-1716286D01*
X743571Y-1702000D01*
X815000Y-1702000D01*
X843571Y-1716286D01*
X857857Y-1730571D01*
X872143Y-1759143D01*
X872143Y-1830571D01*
X857857Y-1859143D01*
X843571Y-1873428D01*
X815000Y-1887714D01*
X743571Y-1887714D01*
X715000Y-1873428D01*
X700714Y-1859143D01*
X1057857Y-1587714D02*
X1086429Y-1587714D01*
X1115000Y-1602000D01*
X1129286Y-1616286D01*
X1143571Y-1644857D01*
X1157857Y-1702000D01*
X1157857Y-1773428D01*
X1143571Y-1830571D01*
X1129286Y-1859143D01*
X1115000Y-1873428D01*
X1086429Y-1887714D01*
X1057857Y-1887714D01*
X1029286Y-1873428D01*
X1015000Y-1859143D01*
X1000714Y-1830571D01*
X986428Y-1773428D01*
X986428Y-1702000D01*
X1000714Y-1644857D01*
X1015000Y-1616286D01*
X1029286Y-1602000D01*
X1057857Y-1587714D01*
X1286429Y-1887714D02*
X1286429Y-1687714D01*
X1286429Y-1716286D02*
X1300714Y-1702000D01*
X1329286Y-1687714D01*
X1372143Y-1687714D01*
X1400714Y-1702000D01*
X1415000Y-1730571D01*
X1415000Y-1887714D01*
X1415000Y-1730571D02*
X1429286Y-1702000D01*
X1457857Y-1687714D01*
X1500714Y-1687714D01*
X1529286Y-1702000D01*
X1543571Y-1730571D01*
X1543571Y-1887714D01*
X1686428Y-1887714D02*
X1686428Y-1687714D01*
X1686428Y-1716286D02*
X1700714Y-1702000D01*
X1729286Y-1687714D01*
X1772143Y-1687714D01*
X1800714Y-1702000D01*
X1815000Y-1730571D01*
X1815000Y-1887714D01*
X1815000Y-1730571D02*
X1829286Y-1702000D01*
X1857857Y-1687714D01*
X1900714Y-1687714D01*
X1929286Y-1702000D01*
X1943571Y-1730571D01*
X1943571Y-1887714D01*
X2529286Y-1573428D02*
X2272143Y-1959143D01*
X2915000Y-1587714D02*
X2943571Y-1587714D01*
X2972143Y-1602000D01*
X2986428Y-1616286D01*
X3000714Y-1644857D01*
X3015000Y-1702000D01*
X3015000Y-1773428D01*
X3000714Y-1830571D01*
X2986428Y-1859143D01*
X2972143Y-1873428D01*
X2943571Y-1887714D01*
X2915000Y-1887714D01*
X2886428Y-1873428D01*
X2872143Y-1859143D01*
X2857857Y-1830571D01*
X2843571Y-1773428D01*
X2843571Y-1702000D01*
X2857857Y-1644857D01*
X2872143Y-1616286D01*
X2886428Y-1602000D01*
X2915000Y-1587714D01*
X3143571Y-1859143D02*
X3157857Y-1873428D01*
X3143571Y-1887714D01*
X3129286Y-1873428D01*
X3143571Y-1859143D01*
X3143571Y-1887714D01*
X3343571Y-1587714D02*
X3372143Y-1587714D01*
X3400714Y-1602000D01*
X3415000Y-1616286D01*
X3429286Y-1644857D01*
X3443571Y-1702000D01*
X3443571Y-1773428D01*
X3429286Y-1830571D01*
X3415000Y-1859143D01*
X3400714Y-1873428D01*
X3372143Y-1887714D01*
X3343571Y-1887714D01*
X3315000Y-1873428D01*
X3300714Y-1859143D01*
X3286428Y-1830571D01*
X3272143Y-1773428D01*
X3272143Y-1702000D01*
X3286428Y-1644857D01*
X3300714Y-1616286D01*
X3315000Y-1602000D01*
X3343571Y-1587714D01*
X3557857Y-1616286D02*
X3572143Y-1602000D01*
X3600714Y-1587714D01*
X3672143Y-1587714D01*
X3700714Y-1602000D01*
X3715000Y-1616286D01*
X3729286Y-1644857D01*
X3729286Y-1673428D01*
X3715000Y-1716286D01*
X3543571Y-1887714D01*
X3729286Y-1887714D01*
X3915000Y-1587714D02*
X3943571Y-1587714D01*
X3972143Y-1602000D01*
X3986428Y-1616286D01*
X4000714Y-1644857D01*
X4015000Y-1702000D01*
X4015000Y-1773428D01*
X4000714Y-1830571D01*
X3986428Y-1859143D01*
X3972143Y-1873428D01*
X3943571Y-1887714D01*
X3915000Y-1887714D01*
X3886428Y-1873428D01*
X3872143Y-1859143D01*
X3857857Y-1830571D01*
X3843571Y-1773428D01*
X3843571Y-1702000D01*
X3857857Y-1644857D01*
X3872143Y-1616286D01*
X3886428Y-1602000D01*
X3915000Y-1587714D01*
X4129286Y-1587714D02*
X4129286Y-1644857D01*
X4243571Y-1587714D02*
X4243571Y-1644857D01*
X4686429Y-2002000D02*
X4672143Y-1987714D01*
X4643571Y-1944857D01*
X4629286Y-1916286D01*
X4615000Y-1873428D01*
X4600714Y-1802000D01*
X4600714Y-1744857D01*
X4615000Y-1673428D01*
X4629286Y-1630571D01*
X4643571Y-1602000D01*
X4672143Y-1559143D01*
X4686429Y-1544857D01*
X4857857Y-1587714D02*
X4886429Y-1587714D01*
X4915000Y-1602000D01*
X4929286Y-1616286D01*
X4943571Y-1644857D01*
X4957857Y-1702000D01*
X4957857Y-1773428D01*
X4943571Y-1830571D01*
X4929286Y-1859143D01*
X4915000Y-1873428D01*
X4886429Y-1887714D01*
X4857857Y-1887714D01*
X4829286Y-1873428D01*
X4815000Y-1859143D01*
X4800714Y-1830571D01*
X4786429Y-1773428D01*
X4786429Y-1702000D01*
X4800714Y-1644857D01*
X4815000Y-1616286D01*
X4829286Y-1602000D01*
X4857857Y-1587714D01*
X5315000Y-1887714D02*
X5315000Y-1587714D01*
X5443571Y-1887714D02*
X5443571Y-1730571D01*
X5429286Y-1702000D01*
X5400714Y-1687714D01*
X5357857Y-1687714D01*
X5329286Y-1702000D01*
X5315000Y-1716286D01*
X5629286Y-1887714D02*
X5600714Y-1873428D01*
X5586429Y-1859143D01*
X5572143Y-1830571D01*
X5572143Y-1744857D01*
X5586429Y-1716286D01*
X5600714Y-1702000D01*
X5629286Y-1687714D01*
X5672143Y-1687714D01*
X5700714Y-1702000D01*
X5715000Y-1716286D01*
X5729286Y-1744857D01*
X5729286Y-1830571D01*
X5715000Y-1859143D01*
X5700714Y-1873428D01*
X5672143Y-1887714D01*
X5629286Y-1887714D01*
X5900714Y-1887714D02*
X5872143Y-1873428D01*
X5857857Y-1844857D01*
X5857857Y-1587714D01*
X6129286Y-1873428D02*
X6100714Y-1887714D01*
X6043571Y-1887714D01*
X6015000Y-1873428D01*
X6000714Y-1844857D01*
X6000714Y-1730571D01*
X6015000Y-1702000D01*
X6043571Y-1687714D01*
X6100714Y-1687714D01*
X6129286Y-1702000D01*
X6143571Y-1730571D01*
X6143571Y-1759143D01*
X6000714Y-1787714D01*
X6257857Y-1873428D02*
X6286428Y-1887714D01*
X6343571Y-1887714D01*
X6372143Y-1873428D01*
X6386428Y-1844857D01*
X6386428Y-1830571D01*
X6372143Y-1802000D01*
X6343571Y-1787714D01*
X6300714Y-1787714D01*
X6272143Y-1773428D01*
X6257857Y-1744857D01*
X6257857Y-1730571D01*
X6272143Y-1702000D01*
X6300714Y-1687714D01*
X6343571Y-1687714D01*
X6372143Y-1702000D01*
X6743571Y-1773428D02*
X6972143Y-1773428D01*
X6857857Y-1887714D02*
X6857857Y-1659143D01*
X7472143Y-1687714D02*
X7472143Y-1887714D01*
X7400714Y-1573428D02*
X7329286Y-1787714D01*
X7515000Y-1787714D01*
X7843571Y-1873428D02*
X7872143Y-1887714D01*
X7929286Y-1887714D01*
X7957857Y-1873428D01*
X7972143Y-1844857D01*
X7972143Y-1830571D01*
X7957857Y-1802000D01*
X7929286Y-1787714D01*
X7886428Y-1787714D01*
X7857857Y-1773428D01*
X7843571Y-1744857D01*
X7843571Y-1730571D01*
X7857857Y-1702000D01*
X7886428Y-1687714D01*
X7929286Y-1687714D01*
X7957857Y-1702000D01*
X8143571Y-1887714D02*
X8115000Y-1873428D01*
X8100714Y-1844857D01*
X8100714Y-1587714D01*
X8300714Y-1887714D02*
X8272143Y-1873428D01*
X8257857Y-1859143D01*
X8243571Y-1830571D01*
X8243571Y-1744857D01*
X8257857Y-1716286D01*
X8272143Y-1702000D01*
X8300714Y-1687714D01*
X8343571Y-1687714D01*
X8372143Y-1702000D01*
X8386428Y-1716286D01*
X8400714Y-1744857D01*
X8400714Y-1830571D01*
X8386428Y-1859143D01*
X8372143Y-1873428D01*
X8343571Y-1887714D01*
X8300714Y-1887714D01*
X8486429Y-1687714D02*
X8600714Y-1687714D01*
X8529286Y-1587714D02*
X8529286Y-1844857D01*
X8543571Y-1873428D01*
X8572143Y-1887714D01*
X8600714Y-1887714D01*
X8686429Y-1873428D02*
X8715000Y-1887714D01*
X8772143Y-1887714D01*
X8800714Y-1873428D01*
X8815000Y-1844857D01*
X8815000Y-1830571D01*
X8800714Y-1802000D01*
X8772143Y-1787714D01*
X8729286Y-1787714D01*
X8700714Y-1773428D01*
X8686429Y-1744857D01*
X8686429Y-1730571D01*
X8700714Y-1702000D01*
X8729286Y-1687714D01*
X8772143Y-1687714D01*
X8800714Y-1702000D01*
X8915000Y-2002000D02*
X8929286Y-1987714D01*
X8957857Y-1944857D01*
X8972143Y-1916286D01*
X8986429Y-1873428D01*
X9000714Y-1802000D01*
X9000714Y-1744857D01*
X8986429Y-1673428D01*
X8972143Y-1630571D01*
X8957857Y-1602000D01*
X8929286Y-1559143D01*
X8915000Y-1544857D01*
M02*
