G04 #@! TF.GenerationSoftware,KiCad,Pcbnew,(5.1.6-0-10_14)*
G04 #@! TF.CreationDate,2020-09-07T13:37:45-07:00*
G04 #@! TF.ProjectId,microgame2,6d696372-6f67-4616-9d65-322e6b696361,rev?*
G04 #@! TF.SameCoordinates,Original*
G04 #@! TF.FileFunction,Legend,Bot*
G04 #@! TF.FilePolarity,Positive*
%FSLAX46Y46*%
G04 Gerber Fmt 4.6, Leading zero omitted, Abs format (unit mm)*
G04 Created by KiCad (PCBNEW (5.1.6-0-10_14)) date 2020-09-07 13:37:45*
%MOMM*%
%LPD*%
G01*
G04 APERTURE LIST*
%ADD10C,0.250000*%
%ADD11C,0.127000*%
%ADD12C,0.200000*%
%ADD13C,0.152400*%
%ADD14C,0.120000*%
%ADD15C,0.150000*%
%ADD16C,0.015000*%
G04 APERTURE END LIST*
D10*
G04 #@! TO.C,J1*
X153050000Y-129250000D02*
G75*
G03*
X153050000Y-129250000I-100000J0D01*
G01*
D11*
X145550000Y-129940000D02*
X146850000Y-129940000D01*
X145550000Y-129940000D02*
X145550000Y-130950000D01*
X145550000Y-133250000D02*
X145550000Y-136850000D01*
X145550000Y-139350000D02*
X145550000Y-140440000D01*
X154750000Y-139350000D02*
X154750000Y-140440000D01*
X154750000Y-133250000D02*
X154750000Y-136850000D01*
X154750000Y-129940000D02*
X154750000Y-130950000D01*
X153450000Y-129940000D02*
X154750000Y-129940000D01*
X145550000Y-140440000D02*
X154750000Y-140440000D01*
G04 #@! TO.C,Q2*
X166530000Y-129230000D02*
X165600000Y-129230000D01*
X165600000Y-129230000D02*
X165600000Y-130030000D01*
X167000000Y-130980000D02*
X167000000Y-130520000D01*
X166530000Y-132270000D02*
X165600000Y-132270000D01*
X165600000Y-131470000D02*
X165600000Y-132270000D01*
D12*
X168400000Y-129750000D02*
G75*
G03*
X168400000Y-129750000I-100000J0D01*
G01*
D13*
G04 #@! TO.C,U2*
X135055300Y-128425167D02*
X135055300Y-129974833D01*
X132794700Y-129974833D02*
X132794700Y-128425167D01*
X134608136Y-131391546D02*
G75*
G02*
X134751200Y-131355000I66864J36546D01*
G01*
G04 #@! TO.C,U10*
X139818900Y-135981100D02*
X139818900Y-133618900D01*
X142181100Y-133618900D02*
X142181100Y-135981100D01*
G04 #@! TO.C,U5*
X128852000Y-130157740D02*
X128852000Y-131442260D01*
X125998000Y-131442260D02*
X125998000Y-130157740D01*
X127034500Y-133687853D02*
X127415500Y-133687853D01*
X127415500Y-133687853D02*
X127415500Y-133433853D01*
X127415500Y-133433853D02*
X127034500Y-133433853D01*
X127034500Y-133433853D02*
X127034500Y-133687853D01*
D14*
G04 #@! TO.C,C4*
X146575279Y-49190000D02*
X146249721Y-49190000D01*
X146575279Y-50210000D02*
X146249721Y-50210000D01*
G04 #@! TO.C,C20*
X142287221Y-137040000D02*
X142612779Y-137040000D01*
X142287221Y-138060000D02*
X142612779Y-138060000D01*
G04 #@! TO.C,C19*
X140987221Y-132235000D02*
X141312779Y-132235000D01*
X140987221Y-131215000D02*
X141312779Y-131215000D01*
D13*
G04 #@! TO.C,U7*
X129225589Y-53250100D02*
X128974100Y-53250100D01*
X130424411Y-51649900D02*
X130675900Y-51649900D01*
X130675900Y-51649900D02*
X130675900Y-53250100D01*
X128974100Y-51649900D02*
X129225589Y-51649900D01*
X128974100Y-53250100D02*
X128974100Y-51649900D01*
X130675900Y-53250100D02*
X130424411Y-53250100D01*
D11*
G04 #@! TO.C,U4*
X163335000Y-136350000D02*
X162790000Y-136350000D01*
X159335000Y-136350000D02*
X159880000Y-136350000D01*
X163335000Y-132350000D02*
X162790000Y-132350000D01*
X159335000Y-132350000D02*
X159880000Y-132350000D01*
X163335000Y-136350000D02*
X163335000Y-135805000D01*
X159335000Y-136350000D02*
X159335000Y-135805000D01*
X163335000Y-132350000D02*
X163335000Y-132895000D01*
X159335000Y-132350000D02*
X159335000Y-132895000D01*
D12*
X162435000Y-137325000D02*
G75*
G03*
X162435000Y-137325000I-100000J0D01*
G01*
D14*
G04 #@! TO.C,R8*
X130027064Y-138610000D02*
X128822936Y-138610000D01*
X130027064Y-136790000D02*
X128822936Y-136790000D01*
D13*
G04 #@! TO.C,D1*
X138449040Y-133113900D02*
X138725900Y-133113900D01*
X137300960Y-135171300D02*
X137024100Y-135171300D01*
X138725900Y-135171300D02*
X138449040Y-135171300D01*
X138725900Y-133113900D02*
X138725900Y-135171300D01*
X137024100Y-133113900D02*
X137300960Y-133113900D01*
X137024100Y-135171300D02*
X137024100Y-133113900D01*
X138510000Y-136733400D02*
X137240000Y-136733400D01*
X137875000Y-137495400D02*
X137748000Y-136733400D01*
X137875000Y-137495400D02*
X137621000Y-136733400D01*
X137875000Y-137495400D02*
X137494000Y-136733400D01*
X137875000Y-137495400D02*
X137367000Y-136733400D01*
X137875000Y-137495400D02*
X137240000Y-136733400D01*
X137875000Y-137495400D02*
X138002000Y-136733400D01*
X137875000Y-137495400D02*
X138129000Y-136733400D01*
X137875000Y-137495400D02*
X138256000Y-136733400D01*
X137875000Y-137495400D02*
X138383000Y-136733400D01*
X137875000Y-137495400D02*
X138510000Y-136733400D01*
X138510000Y-137495400D02*
X137240000Y-137495400D01*
X137875000Y-136479400D02*
X137875000Y-137749400D01*
D14*
G04 #@! TO.C,C15*
X129200279Y-49890000D02*
X128874721Y-49890000D01*
X129200279Y-50910000D02*
X128874721Y-50910000D01*
G04 #@! TO.C,C13*
X127400279Y-136110000D02*
X127074721Y-136110000D01*
X127400279Y-135090000D02*
X127074721Y-135090000D01*
G04 #@! TO.C,C7*
X131090000Y-130150279D02*
X131090000Y-129824721D01*
X132110000Y-130150279D02*
X132110000Y-129824721D01*
G04 #@! TO.C,C6*
X136685000Y-130150279D02*
X136685000Y-129824721D01*
X135665000Y-130150279D02*
X135665000Y-129824721D01*
D11*
G04 #@! TO.C,U1*
X149630000Y-47190000D02*
X149190000Y-47190000D01*
X149190000Y-47190000D02*
X149190000Y-47630000D01*
X155850000Y-47190000D02*
X156290000Y-47190000D01*
X156290000Y-47190000D02*
X156290000Y-47630000D01*
X155850000Y-54290000D02*
X156290000Y-54290000D01*
X156290000Y-54290000D02*
X156290000Y-53850000D01*
X149630000Y-54290000D02*
X149190000Y-54290000D01*
X149190000Y-54290000D02*
X149190000Y-53850000D01*
D12*
X150040000Y-46540000D02*
G75*
G03*
X150040000Y-46540000I-100000J0D01*
G01*
D11*
G04 #@! TO.C,E1*
X155360000Y-36930000D02*
X155360000Y-42160000D01*
X151265000Y-42160000D02*
X143555000Y-42160000D01*
X149260000Y-36930000D02*
X141610000Y-36930000D01*
X141610000Y-36930000D02*
X141610000Y-39690000D01*
D12*
X152810000Y-36060000D02*
G75*
G03*
X152810000Y-36060000I-100000J0D01*
G01*
D11*
X155360000Y-42160000D02*
X154155000Y-42160000D01*
X155360000Y-36930000D02*
X153630000Y-36930000D01*
D10*
G04 #@! TO.C,Q1*
X136111803Y-132275000D02*
G75*
G03*
X136111803Y-132275000I-111803J0D01*
G01*
D14*
G04 #@! TO.C,J2*
X124510000Y-127802064D02*
X124510000Y-126597936D01*
X122690000Y-127802064D02*
X122690000Y-126597936D01*
G04 #@! TO.C,J3*
X124910000Y-53202064D02*
X124910000Y-51997936D01*
X123090000Y-53202064D02*
X123090000Y-51997936D01*
D12*
G04 #@! TO.C,Q3*
X170100000Y-131650000D02*
G75*
G03*
X170100000Y-131650000I-100000J0D01*
G01*
D11*
X172700000Y-129930000D02*
X172700000Y-129130000D01*
X171770000Y-129130000D02*
X172700000Y-129130000D01*
X171300000Y-130420000D02*
X171300000Y-130880000D01*
X172700000Y-132170000D02*
X172700000Y-131370000D01*
X171770000Y-132170000D02*
X172700000Y-132170000D01*
D14*
G04 #@! TO.C,TP1*
X154525001Y-117000000D02*
G75*
G03*
X154525001Y-117000000I-700000J0D01*
G01*
G04 #@! TO.C,TP2*
X157575001Y-117000000D02*
G75*
G03*
X157575001Y-117000000I-700000J0D01*
G01*
G04 #@! TO.C,U2*
D15*
X133377380Y-129200000D02*
X133615476Y-129200000D01*
X133520238Y-128961904D02*
X133615476Y-129200000D01*
X133520238Y-129438095D01*
X133805952Y-129057142D02*
X133615476Y-129200000D01*
X133805952Y-129342857D01*
G04 #@! TO.C,U10*
X140452380Y-134800000D02*
X140690476Y-134800000D01*
X140595238Y-134561904D02*
X140690476Y-134800000D01*
X140595238Y-135038095D01*
X140880952Y-134657142D02*
X140690476Y-134800000D01*
X140880952Y-134942857D01*
G04 #@! TO.C,U5*
X124534482Y-128591089D02*
X124772578Y-128591089D01*
X124677340Y-128352993D02*
X124772578Y-128591089D01*
X124677340Y-128829184D01*
X124963054Y-128448231D02*
X124772578Y-128591089D01*
X124963054Y-128733946D01*
G04 #@! TO.C,U1*
D16*
X147366380Y-46930095D02*
X148175904Y-46930095D01*
X148271142Y-46977714D01*
X148318761Y-47025333D01*
X148366380Y-47120571D01*
X148366380Y-47311047D01*
X148318761Y-47406285D01*
X148271142Y-47453904D01*
X148175904Y-47501523D01*
X147366380Y-47501523D01*
X148366380Y-48501523D02*
X148366380Y-47930095D01*
X148366380Y-48215809D02*
X147366380Y-48215809D01*
X147509238Y-48120571D01*
X147604476Y-48025333D01*
X147652095Y-47930095D01*
G04 #@! TO.C,TP1*
D15*
X155086905Y-117900380D02*
X154515477Y-117900380D01*
X154801191Y-118900380D02*
X154801191Y-117900380D01*
X154182143Y-118900380D02*
X154182143Y-117900380D01*
X153801191Y-117900380D01*
X153705953Y-117948000D01*
X153658334Y-117995619D01*
X153610715Y-118090857D01*
X153610715Y-118233714D01*
X153658334Y-118328952D01*
X153705953Y-118376571D01*
X153801191Y-118424190D01*
X154182143Y-118424190D01*
X152658334Y-118900380D02*
X153229762Y-118900380D01*
X152944048Y-118900380D02*
X152944048Y-117900380D01*
X153039286Y-118043238D01*
X153134524Y-118138476D01*
X153229762Y-118186095D01*
G04 #@! TO.C,TP2*
X158136905Y-117900380D02*
X157565477Y-117900380D01*
X157851191Y-118900380D02*
X157851191Y-117900380D01*
X157232143Y-118900380D02*
X157232143Y-117900380D01*
X156851191Y-117900380D01*
X156755953Y-117948000D01*
X156708334Y-117995619D01*
X156660715Y-118090857D01*
X156660715Y-118233714D01*
X156708334Y-118328952D01*
X156755953Y-118376571D01*
X156851191Y-118424190D01*
X157232143Y-118424190D01*
X156279762Y-117995619D02*
X156232143Y-117948000D01*
X156136905Y-117900380D01*
X155898810Y-117900380D01*
X155803572Y-117948000D01*
X155755953Y-117995619D01*
X155708334Y-118090857D01*
X155708334Y-118186095D01*
X155755953Y-118328952D01*
X156327381Y-118900380D01*
X155708334Y-118900380D01*
G04 #@! TD*
M02*
