M48
INCH,TZ
T1C0.0100
T2C0.0157
T3C0.0197
%
G90
G05
T1
X48071Y-21339
X48110Y-20039
X48110Y-49370
X48110Y-49685
X48150Y-20709
X48268Y-21850
X48346Y-49055
X48425Y-19606
X48652Y-51890
X48661Y-49055
X48740Y-20709
X48878Y-51673
X48898Y-21850
X48937Y-19606
X48976Y-49055
X49213Y-49370
X49213Y-49685
X49413Y-52862
X49445Y-53394
X49449Y-19764
X49449Y-21575
X49693Y-52610
X49724Y-20315
X49783Y-53744
X50039Y-21575
X50142Y-50350
X50177Y-19843
X50463Y-19341
X50492Y-20197
X50669Y-21260
X50728Y-19016
X50850Y-49835
X50858Y-50402
X50866Y-21535
X51112Y-21024
X51122Y-51545
X51130Y-50118
X51339Y-48504
X51339Y-49685
X51378Y-19291
X51407Y-19843
X51417Y-21535
X51437Y-45866
X51467Y-50866
X51624Y-52274
X51693Y-45610
X51811Y-50531
X51969Y-21535
X52047Y-20945
X52087Y-20236
X52254Y-50866
X52520Y-21535
X52628Y-49990
X52638Y-20236
X52795Y-20945
X53071Y-21535
X53173Y-51929
X53189Y-20236
X53199Y-50866
X53406Y-49488
X53406Y-50059
X53543Y-20945
X53583Y-21535
X53612Y-50531
X53681Y-49774
X53701Y-20236
X53815Y-51929
X53957Y-50866
X54094Y-21535
X54252Y-20236
X54291Y-22795
X54291Y-23681
X54331Y-20945
X54370Y-42717
X54646Y-21535
X54803Y-29528
X54843Y-20236
X54843Y-42283
X54843Y-48760
X54882Y-50071
X54980Y-51860
X55000Y-30669
X55039Y-28268
X55039Y-29213
X55079Y-20945
X55157Y-21535
X55165Y-49795
X55256Y-51565
X55295Y-30669
X55374Y-40797
X55394Y-27933
X55433Y-20236
X55457Y-50067
X55472Y-23681
X55551Y-31378
X55669Y-21535
X55748Y-22598
X55748Y-28268
X55748Y-28602
X55768Y-31378
X55768Y-52362
X55827Y-20945
X55882Y-51508
X55984Y-20236
X55984Y-52657
X56043Y-28327
X56171Y-39715
X56181Y-21535
X56213Y-51858
X56280Y-30630
X56280Y-31378
X56299Y-27579
X56390Y-53799
X56390Y-54508
X56488Y-22307
X56496Y-21260
X56555Y-20236
X56614Y-31024
X56732Y-54154
X56768Y-22598
X56772Y-30098
X56831Y-21378
X56929Y-30433
X56969Y-19567
X57051Y-22827
X57087Y-30635
X57106Y-21093
X57116Y-21663
X57126Y-20236
X57264Y-40807
X57323Y-19213
X57323Y-19921
X57323Y-30866
X57638Y-23681
X57697Y-27579
X57697Y-28051
X57717Y-30827
X57736Y-45866
X57795Y-20472
X57913Y-30630
X57933Y-26496
X57963Y-41654
X57972Y-45610
X58031Y-20276
X58031Y-22795
X58031Y-51496
X58091Y-30118
X58130Y-52146
X58366Y-28740
X58425Y-23681
X58435Y-39134
X58472Y-19287
X58524Y-38425
X58563Y-22165
X58593Y-16939
X58593Y-18130
X58602Y-19862
X58622Y-21063
X58622Y-25886
X58711Y-28947
X58760Y-38169
X58770Y-50246
X58780Y-21319
X58780Y-21791
X58780Y-50748
X58819Y-22795
X58839Y-18661
X58878Y-17224
X58878Y-17844
X58888Y-29596
X58917Y-39872
X59006Y-52244
X59016Y-15433
X59016Y-15709
X59016Y-15984
X59016Y-16260
X59016Y-16535
X59016Y-50374
X59163Y-49892
X59213Y-22165
X59213Y-23681
X59272Y-25236
X59272Y-29587
X59311Y-51693
X59321Y-43031
X59421Y-20610
X59425Y-19260
X59429Y-19961
X59449Y-50689
X59478Y-39872
X59488Y-15433
X59488Y-15709
X59488Y-15984
X59488Y-16260
X59488Y-16535
X59557Y-29281
X59606Y-22795
X59642Y-18445
X59685Y-39626
X59717Y-14835
X59783Y-49882
X59862Y-22165
X59882Y-52638
X59961Y-50522
X60000Y-23681
X60020Y-21516
X60126Y-15299
X60138Y-20630
X60138Y-42126
X60142Y-19961
X60157Y-19264
X60197Y-51496
X60295Y-52165
X60335Y-17780
X60394Y-22795
X60413Y-49882
X60492Y-21516
X60528Y-14835
X60551Y-22165
X60551Y-50522
X60602Y-39146
X60630Y-17500
X60744Y-19957
X60748Y-20622
X60748Y-49232
X60760Y-19264
X60787Y-23681
X60984Y-39154
X61020Y-21496
X61024Y-40295
X61028Y-17504
X61063Y-49882
X61161Y-22795
X61181Y-22165
X61240Y-39429
X61270Y-51260
X61343Y-40508
X61413Y-54256
X61437Y-41535
X61508Y-41012
X61526Y-51516
X61602Y-40665
X61705Y-54539
X61713Y-20075
X61713Y-21969
X61713Y-49882
X61713Y-52067
X61781Y-52539
X61791Y-19469
X61909Y-22795
X61929Y-21476
X61969Y-18445
X61969Y-20861
X62116Y-52874
X62134Y-40701
X62150Y-54539
X62224Y-18937
X62264Y-22323
X62274Y-50128
X62429Y-54264
X62441Y-21476
X62461Y-38386
X62559Y-22047
X62589Y-50482
X62589Y-52057
X62657Y-19409
X62657Y-28319
X62717Y-38130
X62785Y-51526
X62854Y-22323
X62874Y-42087
X62913Y-21476
X62957Y-28602
X63041Y-51270
X63081Y-49813
X63110Y-51742
X63150Y-21693
X63150Y-22047
X63346Y-21476
X63350Y-28606
X63514Y-53967
X63543Y-22057
X63543Y-51799
X63563Y-38602
X63630Y-28327
X63740Y-21476
X63878Y-22618
X64094Y-21358
X64134Y-22874
X64173Y-34173
X64567Y-20906
X64744Y-22972
X64764Y-53287
X65138Y-21732
X65441Y-53000
X65441Y-53571
X65512Y-22441
X65512Y-23209
X65591Y-50315
X65720Y-53291
X66004Y-45866
X66260Y-45610
X66417Y-50591
X66811Y-49094
X66890Y-51220
X66890Y-51693
X67165Y-48583
X67244Y-50315
X68701Y-48583
X68957Y-19803
X68957Y-20709
X69154Y-42717
X69370Y-19488
X69370Y-21024
X69409Y-42461
X59926Y-40694
X59926Y-41004
X59926Y-41314
X60236Y-40694
X60236Y-41004
X60236Y-41314
X60546Y-40694
X60546Y-41004
X60546Y-41314
X55357Y-53071
X55667Y-53071
X50012Y-51186
X50012Y-51496
X50012Y-51806
X50322Y-51186
X50322Y-51496
X50322Y-51806
T2
X53209Y-44232
T3
G00X57346Y-54469
M15
G01X57346Y-54232
M16
G05
G00X57488Y-52126
M15
G01X57488Y-51890
M16
G05
G00X60740Y-52126
M15
G01X60740Y-51890
M16
G05
G00X60882Y-54469
M15
G01X60882Y-54232
M16
G05
T0
M30
