G04 #@! TF.GenerationSoftware,KiCad,Pcbnew,(5.1.6-0-10_14)*
G04 #@! TF.CreationDate,2020-09-07T13:37:45-07:00*
G04 #@! TF.ProjectId,microgame2,6d696372-6f67-4616-9d65-322e6b696361,rev?*
G04 #@! TF.SameCoordinates,Original*
G04 #@! TF.FileFunction,Soldermask,Bot*
G04 #@! TF.FilePolarity,Negative*
%FSLAX46Y46*%
G04 Gerber Fmt 4.6, Leading zero omitted, Abs format (unit mm)*
G04 Created by KiCad (PCBNEW (5.1.6-0-10_14)) date 2020-09-07 13:37:45*
%MOMM*%
%LPD*%
G01*
G04 APERTURE LIST*
%ADD10C,0.152400*%
%ADD11C,0.100000*%
%ADD12O,0.900000X1.700000*%
%ADD13C,0.750000*%
%ADD14R,0.400000X0.800000*%
%ADD15R,1.000000X0.900000*%
%ADD16R,1.500000X1.700000*%
%ADD17R,0.354000X0.912800*%
%ADD18C,0.608000*%
%ADD19R,1.700200X1.116000*%
%ADD20R,2.050000X2.550000*%
%ADD21R,0.299898X0.949884*%
%ADD22R,0.800000X0.800000*%
%ADD23R,1.350000X0.900000*%
%ADD24C,0.328600*%
%ADD25R,0.940000X0.370000*%
%ADD26R,0.370000X0.940000*%
%ADD27R,2.100000X2.100000*%
%ADD28R,0.582600X1.268400*%
%ADD29R,0.450000X0.550000*%
%ADD30R,0.550000X0.450000*%
%ADD31R,5.500000X5.500000*%
%ADD32R,1.300000X1.600000*%
%ADD33R,0.600000X0.410000*%
%ADD34R,0.750000X0.410000*%
%ADD35C,1.100000*%
G04 APERTURE END LIST*
D10*
G04 #@! TO.C,U10*
X141800100Y-134800000D02*
X141800100Y-134800000D01*
X141800100Y-134800000D02*
X141800100Y-134800000D01*
X141800100Y-134800000D02*
X141800100Y-134800000D01*
X141800100Y-134800000D02*
X141800100Y-134800000D01*
X141800100Y-134800000D02*
X141800100Y-134800000D01*
X141800100Y-134800000D02*
X141800100Y-134800000D01*
X141800100Y-134800000D02*
X141800100Y-134800000D01*
X141800100Y-134800000D02*
X141800100Y-134800000D01*
X140199900Y-134800000D02*
X140199900Y-134800000D01*
X140199900Y-134800000D02*
X140199900Y-134800000D01*
X140199900Y-134800000D02*
X140199900Y-134800000D01*
X140199900Y-134800000D02*
X140199900Y-134800000D01*
X140199900Y-134800000D02*
X140199900Y-134800000D01*
X140199900Y-134800000D02*
X140199900Y-134800000D01*
X140199900Y-134800000D02*
X140199900Y-134800000D01*
X140199900Y-134800000D02*
X140199900Y-134800000D01*
X141863600Y-135000000D02*
X140136400Y-135000000D01*
X141863600Y-135371500D02*
X141863600Y-135000000D01*
X140136400Y-135371500D02*
X141863600Y-135371500D01*
X140136400Y-135000000D02*
X140136400Y-135371500D01*
X141863600Y-134228500D02*
X140136400Y-134228500D01*
X141863600Y-134600000D02*
X141863600Y-134228500D01*
X140136400Y-134600000D02*
X141863600Y-134600000D01*
X140136400Y-134228500D02*
X140136400Y-134600000D01*
X141863600Y-134228500D02*
X141593700Y-134228500D01*
X141863600Y-135371500D02*
X141863600Y-134228500D01*
X141593700Y-135371500D02*
X141863600Y-135371500D01*
X141593700Y-134228500D02*
X141593700Y-135371500D01*
X141193700Y-134228500D02*
X140806300Y-134228500D01*
X141193700Y-135371500D02*
X141193700Y-134228500D01*
X140806300Y-135371500D02*
X141193700Y-135371500D01*
X140806300Y-134228500D02*
X140806300Y-135371500D01*
X140406300Y-134228500D02*
X140136400Y-134228500D01*
X140406300Y-135371500D02*
X140406300Y-134228500D01*
X140136400Y-135371500D02*
X140406300Y-135371500D01*
X140136400Y-134228500D02*
X140136400Y-135371500D01*
G04 #@! TO.C,U5*
X126255051Y-128324112D02*
X126594948Y-128324112D01*
X126594948Y-128324112D02*
X126594948Y-129313996D01*
X126594948Y-129313996D02*
X126255051Y-129313996D01*
X126255051Y-129313996D02*
X126255051Y-128324112D01*
X126655050Y-128324112D02*
X126994950Y-128324112D01*
X126994950Y-128324112D02*
X126994950Y-129313996D01*
X126994950Y-129313996D02*
X126655050Y-129313996D01*
X126655050Y-129313996D02*
X126655050Y-128324112D01*
X127055052Y-128324112D02*
X127394949Y-128324112D01*
X127394949Y-128324112D02*
X127394949Y-129313996D01*
X127394949Y-129313996D02*
X127055052Y-129313996D01*
X127055052Y-129313996D02*
X127055052Y-128324112D01*
X127455051Y-128324112D02*
X127794948Y-128324112D01*
X127794948Y-128324112D02*
X127794948Y-129313996D01*
X127794948Y-129313996D02*
X127455051Y-129313996D01*
X127455051Y-129313996D02*
X127455051Y-128324112D01*
X127855050Y-128324112D02*
X128194948Y-128324112D01*
X128194948Y-128324112D02*
X128194948Y-129313996D01*
X128194948Y-129313996D02*
X127855050Y-129313996D01*
X127855050Y-129313996D02*
X127855050Y-128324112D01*
X128255052Y-128324112D02*
X128594949Y-128324112D01*
X128594949Y-128324112D02*
X128594949Y-129313996D01*
X128594949Y-129313996D02*
X128255052Y-129313996D01*
X128255052Y-129313996D02*
X128255052Y-128324112D01*
X128255052Y-132286004D02*
X128594949Y-132286004D01*
X128594949Y-132286004D02*
X128594949Y-133275888D01*
X128594949Y-133275888D02*
X128255052Y-133275888D01*
X128255052Y-133275888D02*
X128255052Y-132286004D01*
X127855050Y-132286004D02*
X128194950Y-132286004D01*
X128194950Y-132286004D02*
X128194950Y-133275888D01*
X128194950Y-133275888D02*
X127855050Y-133275888D01*
X127855050Y-133275888D02*
X127855050Y-132286004D01*
X127455051Y-132286004D02*
X127794948Y-132286004D01*
X127794948Y-132286004D02*
X127794948Y-133275888D01*
X127794948Y-133275888D02*
X127455051Y-133275888D01*
X127455051Y-133275888D02*
X127455051Y-132286004D01*
X127055052Y-132286004D02*
X127394949Y-132286004D01*
X127394949Y-132286004D02*
X127394949Y-133275888D01*
X127394949Y-133275888D02*
X127055052Y-133275888D01*
X127055052Y-133275888D02*
X127055052Y-132286004D01*
X126655052Y-132286004D02*
X126994950Y-132286004D01*
X126994950Y-132286004D02*
X126994950Y-133275888D01*
X126994950Y-133275888D02*
X126655052Y-133275888D01*
X126655052Y-133275888D02*
X126655052Y-132286004D01*
X126255051Y-132286004D02*
X126594948Y-132286004D01*
X126594948Y-132286004D02*
X126594948Y-133275888D01*
X126594948Y-133275888D02*
X126255051Y-133275888D01*
X126255051Y-133275888D02*
X126255051Y-132286004D01*
X126450000Y-130800000D02*
X126450000Y-130800000D01*
X126450000Y-130800000D02*
X126450000Y-130800000D01*
X126450000Y-130800000D02*
X126450000Y-130800000D01*
X126450000Y-130800000D02*
X126450000Y-130800000D01*
X126450000Y-130800000D02*
X126450000Y-130800000D01*
X126450000Y-130800000D02*
X126450000Y-130800000D01*
X126450000Y-130800000D02*
X126450000Y-130800000D01*
X126450000Y-130800000D02*
X126450000Y-130800000D01*
X128400000Y-130800000D02*
X128400000Y-130800000D01*
X128400000Y-130800000D02*
X128400000Y-130800000D01*
X128400000Y-130800000D02*
X128400000Y-130800000D01*
X128400000Y-130800000D02*
X128400000Y-130800000D01*
X128400000Y-130800000D02*
X128400000Y-130800000D01*
X128400000Y-130800000D02*
X128400000Y-130800000D01*
X128400000Y-130800000D02*
X128400000Y-130800000D01*
X128400000Y-130800000D02*
X128400000Y-130800000D01*
X126450000Y-131775000D02*
X125775000Y-131775000D01*
X125775000Y-131775000D02*
X125775000Y-132025000D01*
X125775000Y-132025000D02*
X126450000Y-132025000D01*
X126450000Y-132025000D02*
X126450000Y-131775000D01*
X126450000Y-129825000D02*
X125775000Y-129825000D01*
X125775000Y-129825000D02*
X125775000Y-129575000D01*
X125775000Y-129575000D02*
X126450000Y-129575000D01*
X126450000Y-129575000D02*
X126450000Y-129825000D01*
X128400000Y-129825000D02*
X129075000Y-129825000D01*
X129075000Y-129825000D02*
X129075000Y-129575000D01*
X129075000Y-129575000D02*
X128400000Y-129575000D01*
X128400000Y-129575000D02*
X128400000Y-129825000D01*
X128400000Y-131775000D02*
X129075000Y-131775000D01*
X129075000Y-131775000D02*
X129075000Y-132025000D01*
X129075000Y-132025000D02*
X128400000Y-132025000D01*
X128400000Y-132025000D02*
X128400000Y-131775000D01*
X126386500Y-129511500D02*
X126386500Y-132088500D01*
X126386500Y-132088500D02*
X126831300Y-132088500D01*
X126831300Y-132088500D02*
X126831300Y-129511500D01*
X126831300Y-129511500D02*
X126386500Y-129511500D01*
X127231300Y-129511500D02*
X127231300Y-132088500D01*
X127231300Y-132088500D02*
X127618700Y-132088500D01*
X127618700Y-132088500D02*
X127618700Y-129511500D01*
X127618700Y-129511500D02*
X127231300Y-129511500D01*
X128018700Y-129511500D02*
X128018700Y-132088500D01*
X128018700Y-132088500D02*
X128463500Y-132088500D01*
X128463500Y-132088500D02*
X128463500Y-129511500D01*
X128463500Y-129511500D02*
X128018700Y-129511500D01*
X126386500Y-129511500D02*
X126386500Y-129812600D01*
X126386500Y-129812600D02*
X128463500Y-129812600D01*
X128463500Y-129812600D02*
X128463500Y-129511500D01*
X128463500Y-129511500D02*
X126386500Y-129511500D01*
X126386500Y-130600000D02*
X126386500Y-130212600D01*
X126386500Y-130212600D02*
X128463500Y-130212600D01*
X128463500Y-130212600D02*
X128463500Y-130600000D01*
X128463500Y-130600000D02*
X126386500Y-130600000D01*
X126386500Y-131387400D02*
X126386500Y-131000000D01*
X126386500Y-131000000D02*
X128463500Y-131000000D01*
X128463500Y-131000000D02*
X128463500Y-131387400D01*
X128463500Y-131387400D02*
X126386500Y-131387400D01*
X126386500Y-131787400D02*
X126386500Y-132088500D01*
X126386500Y-132088500D02*
X128463500Y-132088500D01*
X128463500Y-132088500D02*
X128463500Y-131787400D01*
X128463500Y-131787400D02*
X126386500Y-131787400D01*
D11*
G04 #@! TO.C,Q1*
G36*
X135450000Y-134125000D02*
G01*
X135450000Y-132925000D01*
X134550000Y-132925000D01*
X134550000Y-134125000D01*
X135450000Y-134125000D01*
G37*
X135450000Y-134125000D02*
X135450000Y-132925000D01*
X134550000Y-132925000D01*
X134550000Y-134125000D01*
X135450000Y-134125000D01*
G04 #@! TD*
D12*
G04 #@! TO.C,J1*
X154640000Y-138050000D03*
X145660000Y-138050000D03*
X146020000Y-132100000D03*
X154280000Y-132100000D03*
D13*
X153750000Y-130850000D03*
D14*
X153150000Y-131890000D03*
X152650000Y-131890000D03*
X152150000Y-131890000D03*
X151650000Y-131890000D03*
X151150000Y-131890000D03*
X150650000Y-131890000D03*
X150150000Y-131890000D03*
X149650000Y-131890000D03*
X149150000Y-131890000D03*
X148650000Y-131890000D03*
X148150000Y-131890000D03*
X147650000Y-131890000D03*
X147400000Y-130190000D03*
X147900000Y-130190000D03*
X148400000Y-130190000D03*
X148900000Y-130190000D03*
X149400000Y-130190000D03*
X149900000Y-130190000D03*
X150400000Y-130190000D03*
X150900000Y-130190000D03*
X151400000Y-130190000D03*
X151900000Y-130190000D03*
X152400000Y-130190000D03*
X152900000Y-130190000D03*
G04 #@! TD*
D15*
G04 #@! TO.C,Q2*
X167300000Y-131700000D03*
X167300000Y-129800000D03*
X165300000Y-130750000D03*
G04 #@! TD*
D16*
G04 #@! TO.C,U2*
X133925000Y-129200000D03*
D17*
X134675001Y-127803000D03*
X134175000Y-127803000D03*
X133675000Y-127803000D03*
X133174999Y-127803000D03*
X133174999Y-130597000D03*
X133675000Y-130597000D03*
X134175000Y-130597000D03*
X134675001Y-130597000D03*
G04 #@! TD*
D18*
G04 #@! TO.C,U10*
X140606300Y-134800000D03*
X141393700Y-134800000D03*
D19*
X141000000Y-134800000D03*
D14*
X140350001Y-135850000D03*
X141000000Y-135850000D03*
X141649999Y-135850000D03*
X141649999Y-133750000D03*
X141000000Y-133750000D03*
X140350001Y-133750000D03*
G04 #@! TD*
D18*
G04 #@! TO.C,U5*
X127031300Y-131587400D03*
X127818700Y-131587400D03*
X127031300Y-130800000D03*
X127818700Y-130800000D03*
X127031300Y-130012600D03*
X127818700Y-130012600D03*
D20*
X127425000Y-130800000D03*
D21*
X126424999Y-132780946D03*
X126825001Y-132780946D03*
X127225000Y-132780946D03*
X127625000Y-132780946D03*
X128024999Y-132780946D03*
X128425001Y-132780946D03*
X128425001Y-128819054D03*
X128024999Y-128819054D03*
X127625000Y-128819054D03*
X127225000Y-128819054D03*
X126825001Y-128819054D03*
X126424999Y-128819054D03*
G04 #@! TD*
D18*
G04 #@! TO.C,U6*
X153787400Y-103362600D03*
X153787400Y-104150000D03*
X153787400Y-104937400D03*
X153000000Y-103362600D03*
X153000000Y-104150000D03*
X153000000Y-104937400D03*
X152212600Y-103362600D03*
X152212600Y-104150000D03*
X152212600Y-104937400D03*
G04 #@! TD*
D22*
G04 #@! TO.C,SW9*
X177850000Y-53900000D03*
X177850000Y-49000000D03*
D23*
X176225000Y-52600000D03*
X176225000Y-51450000D03*
X176225000Y-50300000D03*
G04 #@! TD*
G04 #@! TO.C,C4*
G36*
G01*
X146112500Y-49418750D02*
X146112500Y-49981250D01*
G75*
G02*
X145868750Y-50225000I-243750J0D01*
G01*
X145381250Y-50225000D01*
G75*
G02*
X145137500Y-49981250I0J243750D01*
G01*
X145137500Y-49418750D01*
G75*
G02*
X145381250Y-49175000I243750J0D01*
G01*
X145868750Y-49175000D01*
G75*
G02*
X146112500Y-49418750I0J-243750D01*
G01*
G37*
G36*
G01*
X147687500Y-49418750D02*
X147687500Y-49981250D01*
G75*
G02*
X147443750Y-50225000I-243750J0D01*
G01*
X146956250Y-50225000D01*
G75*
G02*
X146712500Y-49981250I0J243750D01*
G01*
X146712500Y-49418750D01*
G75*
G02*
X146956250Y-49175000I243750J0D01*
G01*
X147443750Y-49175000D01*
G75*
G02*
X147687500Y-49418750I0J-243750D01*
G01*
G37*
G04 #@! TD*
G04 #@! TO.C,C20*
G36*
G01*
X142750000Y-137831250D02*
X142750000Y-137268750D01*
G75*
G02*
X142993750Y-137025000I243750J0D01*
G01*
X143481250Y-137025000D01*
G75*
G02*
X143725000Y-137268750I0J-243750D01*
G01*
X143725000Y-137831250D01*
G75*
G02*
X143481250Y-138075000I-243750J0D01*
G01*
X142993750Y-138075000D01*
G75*
G02*
X142750000Y-137831250I0J243750D01*
G01*
G37*
G36*
G01*
X141175000Y-137831250D02*
X141175000Y-137268750D01*
G75*
G02*
X141418750Y-137025000I243750J0D01*
G01*
X141906250Y-137025000D01*
G75*
G02*
X142150000Y-137268750I0J-243750D01*
G01*
X142150000Y-137831250D01*
G75*
G02*
X141906250Y-138075000I-243750J0D01*
G01*
X141418750Y-138075000D01*
G75*
G02*
X141175000Y-137831250I0J243750D01*
G01*
G37*
G04 #@! TD*
G04 #@! TO.C,C19*
G36*
G01*
X139875000Y-132006250D02*
X139875000Y-131443750D01*
G75*
G02*
X140118750Y-131200000I243750J0D01*
G01*
X140606250Y-131200000D01*
G75*
G02*
X140850000Y-131443750I0J-243750D01*
G01*
X140850000Y-132006250D01*
G75*
G02*
X140606250Y-132250000I-243750J0D01*
G01*
X140118750Y-132250000D01*
G75*
G02*
X139875000Y-132006250I0J243750D01*
G01*
G37*
G36*
G01*
X141450000Y-132006250D02*
X141450000Y-131443750D01*
G75*
G02*
X141693750Y-131200000I243750J0D01*
G01*
X142181250Y-131200000D01*
G75*
G02*
X142425000Y-131443750I0J-243750D01*
G01*
X142425000Y-132006250D01*
G75*
G02*
X142181250Y-132250000I-243750J0D01*
G01*
X141693750Y-132250000D01*
G75*
G02*
X141450000Y-132006250I0J243750D01*
G01*
G37*
G04 #@! TD*
D24*
G04 #@! TO.C,U7*
X130225000Y-52050000D03*
X129825000Y-52050000D03*
X129425000Y-52050000D03*
X130225000Y-52450000D03*
X129825000Y-52450000D03*
X129425000Y-52450000D03*
X130225000Y-52850000D03*
X129825000Y-52850000D03*
X129425000Y-52850000D03*
G04 #@! TD*
D25*
G04 #@! TO.C,U4*
X159400000Y-135350000D03*
X159400000Y-134850000D03*
X159400000Y-134350000D03*
X159400000Y-133850000D03*
X159400000Y-133350000D03*
X163270000Y-133350000D03*
X163270000Y-133850000D03*
X163270000Y-134350000D03*
X163270000Y-134850000D03*
X163270000Y-135350000D03*
D26*
X162335000Y-136285000D03*
X161835000Y-136285000D03*
X161335000Y-136285000D03*
X160835000Y-136285000D03*
X160335000Y-136285000D03*
X160335000Y-132415000D03*
X160835000Y-132415000D03*
X161335000Y-132415000D03*
X161835000Y-132415000D03*
X162335000Y-132415000D03*
D27*
X161335000Y-134350000D03*
G04 #@! TD*
G04 #@! TO.C,R10*
G36*
G01*
X126570000Y-134077500D02*
X126570000Y-134472500D01*
G75*
G02*
X126397500Y-134645000I-172500J0D01*
G01*
X126052500Y-134645000D01*
G75*
G02*
X125880000Y-134472500I0J172500D01*
G01*
X125880000Y-134077500D01*
G75*
G02*
X126052500Y-133905000I172500J0D01*
G01*
X126397500Y-133905000D01*
G75*
G02*
X126570000Y-134077500I0J-172500D01*
G01*
G37*
G36*
G01*
X127540000Y-134077500D02*
X127540000Y-134472500D01*
G75*
G02*
X127367500Y-134645000I-172500J0D01*
G01*
X127022500Y-134645000D01*
G75*
G02*
X126850000Y-134472500I0J172500D01*
G01*
X126850000Y-134077500D01*
G75*
G02*
X127022500Y-133905000I172500J0D01*
G01*
X127367500Y-133905000D01*
G75*
G02*
X127540000Y-134077500I0J-172500D01*
G01*
G37*
G04 #@! TD*
G04 #@! TO.C,R9*
G36*
G01*
X123952500Y-131470000D02*
X124347500Y-131470000D01*
G75*
G02*
X124520000Y-131642500I0J-172500D01*
G01*
X124520000Y-131987500D01*
G75*
G02*
X124347500Y-132160000I-172500J0D01*
G01*
X123952500Y-132160000D01*
G75*
G02*
X123780000Y-131987500I0J172500D01*
G01*
X123780000Y-131642500D01*
G75*
G02*
X123952500Y-131470000I172500J0D01*
G01*
G37*
G36*
G01*
X123952500Y-132440000D02*
X124347500Y-132440000D01*
G75*
G02*
X124520000Y-132612500I0J-172500D01*
G01*
X124520000Y-132957500D01*
G75*
G02*
X124347500Y-133130000I-172500J0D01*
G01*
X123952500Y-133130000D01*
G75*
G02*
X123780000Y-132957500I0J172500D01*
G01*
X123780000Y-132612500D01*
G75*
G02*
X123952500Y-132440000I172500J0D01*
G01*
G37*
G04 #@! TD*
G04 #@! TO.C,R8*
G36*
G01*
X131500000Y-137045000D02*
X131500000Y-138355000D01*
G75*
G02*
X131230000Y-138625000I-270000J0D01*
G01*
X130420000Y-138625000D01*
G75*
G02*
X130150000Y-138355000I0J270000D01*
G01*
X130150000Y-137045000D01*
G75*
G02*
X130420000Y-136775000I270000J0D01*
G01*
X131230000Y-136775000D01*
G75*
G02*
X131500000Y-137045000I0J-270000D01*
G01*
G37*
G36*
G01*
X128700000Y-137045000D02*
X128700000Y-138355000D01*
G75*
G02*
X128430000Y-138625000I-270000J0D01*
G01*
X127620000Y-138625000D01*
G75*
G02*
X127350000Y-138355000I0J270000D01*
G01*
X127350000Y-137045000D01*
G75*
G02*
X127620000Y-136775000I270000J0D01*
G01*
X128430000Y-136775000D01*
G75*
G02*
X128700000Y-137045000I0J-270000D01*
G01*
G37*
G04 #@! TD*
G04 #@! TO.C,R7*
G36*
G01*
X158597500Y-130565000D02*
X158202500Y-130565000D01*
G75*
G02*
X158030000Y-130392500I0J172500D01*
G01*
X158030000Y-130047500D01*
G75*
G02*
X158202500Y-129875000I172500J0D01*
G01*
X158597500Y-129875000D01*
G75*
G02*
X158770000Y-130047500I0J-172500D01*
G01*
X158770000Y-130392500D01*
G75*
G02*
X158597500Y-130565000I-172500J0D01*
G01*
G37*
G36*
G01*
X158597500Y-129595000D02*
X158202500Y-129595000D01*
G75*
G02*
X158030000Y-129422500I0J172500D01*
G01*
X158030000Y-129077500D01*
G75*
G02*
X158202500Y-128905000I172500J0D01*
G01*
X158597500Y-128905000D01*
G75*
G02*
X158770000Y-129077500I0J-172500D01*
G01*
X158770000Y-129422500D01*
G75*
G02*
X158597500Y-129595000I-172500J0D01*
G01*
G37*
G04 #@! TD*
G04 #@! TO.C,R6*
G36*
G01*
X157522500Y-129595000D02*
X157127500Y-129595000D01*
G75*
G02*
X156955000Y-129422500I0J172500D01*
G01*
X156955000Y-129077500D01*
G75*
G02*
X157127500Y-128905000I172500J0D01*
G01*
X157522500Y-128905000D01*
G75*
G02*
X157695000Y-129077500I0J-172500D01*
G01*
X157695000Y-129422500D01*
G75*
G02*
X157522500Y-129595000I-172500J0D01*
G01*
G37*
G36*
G01*
X157522500Y-130565000D02*
X157127500Y-130565000D01*
G75*
G02*
X156955000Y-130392500I0J172500D01*
G01*
X156955000Y-130047500D01*
G75*
G02*
X157127500Y-129875000I172500J0D01*
G01*
X157522500Y-129875000D01*
G75*
G02*
X157695000Y-130047500I0J-172500D01*
G01*
X157695000Y-130392500D01*
G75*
G02*
X157522500Y-130565000I-172500J0D01*
G01*
G37*
G04 #@! TD*
G04 #@! TO.C,R5*
G36*
G01*
X156922500Y-138170000D02*
X156527500Y-138170000D01*
G75*
G02*
X156355000Y-137997500I0J172500D01*
G01*
X156355000Y-137652500D01*
G75*
G02*
X156527500Y-137480000I172500J0D01*
G01*
X156922500Y-137480000D01*
G75*
G02*
X157095000Y-137652500I0J-172500D01*
G01*
X157095000Y-137997500D01*
G75*
G02*
X156922500Y-138170000I-172500J0D01*
G01*
G37*
G36*
G01*
X156922500Y-137200000D02*
X156527500Y-137200000D01*
G75*
G02*
X156355000Y-137027500I0J172500D01*
G01*
X156355000Y-136682500D01*
G75*
G02*
X156527500Y-136510000I172500J0D01*
G01*
X156922500Y-136510000D01*
G75*
G02*
X157095000Y-136682500I0J-172500D01*
G01*
X157095000Y-137027500D01*
G75*
G02*
X156922500Y-137200000I-172500J0D01*
G01*
G37*
G04 #@! TD*
G04 #@! TO.C,R4*
G36*
G01*
X158047500Y-137200000D02*
X157652500Y-137200000D01*
G75*
G02*
X157480000Y-137027500I0J172500D01*
G01*
X157480000Y-136682500D01*
G75*
G02*
X157652500Y-136510000I172500J0D01*
G01*
X158047500Y-136510000D01*
G75*
G02*
X158220000Y-136682500I0J-172500D01*
G01*
X158220000Y-137027500D01*
G75*
G02*
X158047500Y-137200000I-172500J0D01*
G01*
G37*
G36*
G01*
X158047500Y-138170000D02*
X157652500Y-138170000D01*
G75*
G02*
X157480000Y-137997500I0J172500D01*
G01*
X157480000Y-137652500D01*
G75*
G02*
X157652500Y-137480000I172500J0D01*
G01*
X158047500Y-137480000D01*
G75*
G02*
X158220000Y-137652500I0J-172500D01*
G01*
X158220000Y-137997500D01*
G75*
G02*
X158047500Y-138170000I-172500J0D01*
G01*
G37*
G04 #@! TD*
G04 #@! TO.C,R3*
G36*
G01*
X134335000Y-126622500D02*
X134335000Y-126227500D01*
G75*
G02*
X134507500Y-126055000I172500J0D01*
G01*
X134852500Y-126055000D01*
G75*
G02*
X135025000Y-126227500I0J-172500D01*
G01*
X135025000Y-126622500D01*
G75*
G02*
X134852500Y-126795000I-172500J0D01*
G01*
X134507500Y-126795000D01*
G75*
G02*
X134335000Y-126622500I0J172500D01*
G01*
G37*
G36*
G01*
X135305000Y-126622500D02*
X135305000Y-126227500D01*
G75*
G02*
X135477500Y-126055000I172500J0D01*
G01*
X135822500Y-126055000D01*
G75*
G02*
X135995000Y-126227500I0J-172500D01*
G01*
X135995000Y-126622500D01*
G75*
G02*
X135822500Y-126795000I-172500J0D01*
G01*
X135477500Y-126795000D01*
G75*
G02*
X135305000Y-126622500I0J172500D01*
G01*
G37*
G04 #@! TD*
G04 #@! TO.C,R2*
G36*
G01*
X140322500Y-127525000D02*
X139927500Y-127525000D01*
G75*
G02*
X139755000Y-127352500I0J172500D01*
G01*
X139755000Y-127007500D01*
G75*
G02*
X139927500Y-126835000I172500J0D01*
G01*
X140322500Y-126835000D01*
G75*
G02*
X140495000Y-127007500I0J-172500D01*
G01*
X140495000Y-127352500D01*
G75*
G02*
X140322500Y-127525000I-172500J0D01*
G01*
G37*
G36*
G01*
X140322500Y-128495000D02*
X139927500Y-128495000D01*
G75*
G02*
X139755000Y-128322500I0J172500D01*
G01*
X139755000Y-127977500D01*
G75*
G02*
X139927500Y-127805000I172500J0D01*
G01*
X140322500Y-127805000D01*
G75*
G02*
X140495000Y-127977500I0J-172500D01*
G01*
X140495000Y-128322500D01*
G75*
G02*
X140322500Y-128495000I-172500J0D01*
G01*
G37*
G04 #@! TD*
D28*
G04 #@! TO.C,D1*
X137875000Y-135260200D03*
X137875000Y-133025000D03*
G04 #@! TD*
G04 #@! TO.C,C16*
G36*
G01*
X129200000Y-48802500D02*
X129200000Y-49197500D01*
G75*
G02*
X129027500Y-49370000I-172500J0D01*
G01*
X128682500Y-49370000D01*
G75*
G02*
X128510000Y-49197500I0J172500D01*
G01*
X128510000Y-48802500D01*
G75*
G02*
X128682500Y-48630000I172500J0D01*
G01*
X129027500Y-48630000D01*
G75*
G02*
X129200000Y-48802500I0J-172500D01*
G01*
G37*
G36*
G01*
X130170000Y-48802500D02*
X130170000Y-49197500D01*
G75*
G02*
X129997500Y-49370000I-172500J0D01*
G01*
X129652500Y-49370000D01*
G75*
G02*
X129480000Y-49197500I0J172500D01*
G01*
X129480000Y-48802500D01*
G75*
G02*
X129652500Y-48630000I172500J0D01*
G01*
X129997500Y-48630000D01*
G75*
G02*
X130170000Y-48802500I0J-172500D01*
G01*
G37*
G04 #@! TD*
G04 #@! TO.C,C15*
G36*
G01*
X128737500Y-50118750D02*
X128737500Y-50681250D01*
G75*
G02*
X128493750Y-50925000I-243750J0D01*
G01*
X128006250Y-50925000D01*
G75*
G02*
X127762500Y-50681250I0J243750D01*
G01*
X127762500Y-50118750D01*
G75*
G02*
X128006250Y-49875000I243750J0D01*
G01*
X128493750Y-49875000D01*
G75*
G02*
X128737500Y-50118750I0J-243750D01*
G01*
G37*
G36*
G01*
X130312500Y-50118750D02*
X130312500Y-50681250D01*
G75*
G02*
X130068750Y-50925000I-243750J0D01*
G01*
X129581250Y-50925000D01*
G75*
G02*
X129337500Y-50681250I0J243750D01*
G01*
X129337500Y-50118750D01*
G75*
G02*
X129581250Y-49875000I243750J0D01*
G01*
X130068750Y-49875000D01*
G75*
G02*
X130312500Y-50118750I0J-243750D01*
G01*
G37*
G04 #@! TD*
G04 #@! TO.C,C14*
G36*
G01*
X127855000Y-127497500D02*
X127855000Y-127102500D01*
G75*
G02*
X128027500Y-126930000I172500J0D01*
G01*
X128372500Y-126930000D01*
G75*
G02*
X128545000Y-127102500I0J-172500D01*
G01*
X128545000Y-127497500D01*
G75*
G02*
X128372500Y-127670000I-172500J0D01*
G01*
X128027500Y-127670000D01*
G75*
G02*
X127855000Y-127497500I0J172500D01*
G01*
G37*
G36*
G01*
X128825000Y-127497500D02*
X128825000Y-127102500D01*
G75*
G02*
X128997500Y-126930000I172500J0D01*
G01*
X129342500Y-126930000D01*
G75*
G02*
X129515000Y-127102500I0J-172500D01*
G01*
X129515000Y-127497500D01*
G75*
G02*
X129342500Y-127670000I-172500J0D01*
G01*
X128997500Y-127670000D01*
G75*
G02*
X128825000Y-127497500I0J172500D01*
G01*
G37*
G04 #@! TD*
G04 #@! TO.C,C13*
G36*
G01*
X128512500Y-135318750D02*
X128512500Y-135881250D01*
G75*
G02*
X128268750Y-136125000I-243750J0D01*
G01*
X127781250Y-136125000D01*
G75*
G02*
X127537500Y-135881250I0J243750D01*
G01*
X127537500Y-135318750D01*
G75*
G02*
X127781250Y-135075000I243750J0D01*
G01*
X128268750Y-135075000D01*
G75*
G02*
X128512500Y-135318750I0J-243750D01*
G01*
G37*
G36*
G01*
X126937500Y-135318750D02*
X126937500Y-135881250D01*
G75*
G02*
X126693750Y-136125000I-243750J0D01*
G01*
X126206250Y-136125000D01*
G75*
G02*
X125962500Y-135881250I0J243750D01*
G01*
X125962500Y-135318750D01*
G75*
G02*
X126206250Y-135075000I243750J0D01*
G01*
X126693750Y-135075000D01*
G75*
G02*
X126937500Y-135318750I0J-243750D01*
G01*
G37*
G04 #@! TD*
G04 #@! TO.C,C12*
G36*
G01*
X164905000Y-135547500D02*
X164905000Y-135152500D01*
G75*
G02*
X165077500Y-134980000I172500J0D01*
G01*
X165422500Y-134980000D01*
G75*
G02*
X165595000Y-135152500I0J-172500D01*
G01*
X165595000Y-135547500D01*
G75*
G02*
X165422500Y-135720000I-172500J0D01*
G01*
X165077500Y-135720000D01*
G75*
G02*
X164905000Y-135547500I0J172500D01*
G01*
G37*
G36*
G01*
X165875000Y-135547500D02*
X165875000Y-135152500D01*
G75*
G02*
X166047500Y-134980000I172500J0D01*
G01*
X166392500Y-134980000D01*
G75*
G02*
X166565000Y-135152500I0J-172500D01*
G01*
X166565000Y-135547500D01*
G75*
G02*
X166392500Y-135720000I-172500J0D01*
G01*
X166047500Y-135720000D01*
G75*
G02*
X165875000Y-135547500I0J172500D01*
G01*
G37*
G04 #@! TD*
G04 #@! TO.C,C11*
G36*
G01*
X159277500Y-129875000D02*
X159672500Y-129875000D01*
G75*
G02*
X159845000Y-130047500I0J-172500D01*
G01*
X159845000Y-130392500D01*
G75*
G02*
X159672500Y-130565000I-172500J0D01*
G01*
X159277500Y-130565000D01*
G75*
G02*
X159105000Y-130392500I0J172500D01*
G01*
X159105000Y-130047500D01*
G75*
G02*
X159277500Y-129875000I172500J0D01*
G01*
G37*
G36*
G01*
X159277500Y-128905000D02*
X159672500Y-128905000D01*
G75*
G02*
X159845000Y-129077500I0J-172500D01*
G01*
X159845000Y-129422500D01*
G75*
G02*
X159672500Y-129595000I-172500J0D01*
G01*
X159277500Y-129595000D01*
G75*
G02*
X159105000Y-129422500I0J172500D01*
G01*
X159105000Y-129077500D01*
G75*
G02*
X159277500Y-128905000I172500J0D01*
G01*
G37*
G04 #@! TD*
G04 #@! TO.C,C10*
G36*
G01*
X156077500Y-129855000D02*
X156472500Y-129855000D01*
G75*
G02*
X156645000Y-130027500I0J-172500D01*
G01*
X156645000Y-130372500D01*
G75*
G02*
X156472500Y-130545000I-172500J0D01*
G01*
X156077500Y-130545000D01*
G75*
G02*
X155905000Y-130372500I0J172500D01*
G01*
X155905000Y-130027500D01*
G75*
G02*
X156077500Y-129855000I172500J0D01*
G01*
G37*
G36*
G01*
X156077500Y-128885000D02*
X156472500Y-128885000D01*
G75*
G02*
X156645000Y-129057500I0J-172500D01*
G01*
X156645000Y-129402500D01*
G75*
G02*
X156472500Y-129575000I-172500J0D01*
G01*
X156077500Y-129575000D01*
G75*
G02*
X155905000Y-129402500I0J172500D01*
G01*
X155905000Y-129057500D01*
G75*
G02*
X156077500Y-128885000I172500J0D01*
G01*
G37*
G04 #@! TD*
G04 #@! TO.C,C7*
G36*
G01*
X131881250Y-131262500D02*
X131318750Y-131262500D01*
G75*
G02*
X131075000Y-131018750I0J243750D01*
G01*
X131075000Y-130531250D01*
G75*
G02*
X131318750Y-130287500I243750J0D01*
G01*
X131881250Y-130287500D01*
G75*
G02*
X132125000Y-130531250I0J-243750D01*
G01*
X132125000Y-131018750D01*
G75*
G02*
X131881250Y-131262500I-243750J0D01*
G01*
G37*
G36*
G01*
X131881250Y-129687500D02*
X131318750Y-129687500D01*
G75*
G02*
X131075000Y-129443750I0J243750D01*
G01*
X131075000Y-128956250D01*
G75*
G02*
X131318750Y-128712500I243750J0D01*
G01*
X131881250Y-128712500D01*
G75*
G02*
X132125000Y-128956250I0J-243750D01*
G01*
X132125000Y-129443750D01*
G75*
G02*
X131881250Y-129687500I-243750J0D01*
G01*
G37*
G04 #@! TD*
G04 #@! TO.C,C6*
G36*
G01*
X136456250Y-129687500D02*
X135893750Y-129687500D01*
G75*
G02*
X135650000Y-129443750I0J243750D01*
G01*
X135650000Y-128956250D01*
G75*
G02*
X135893750Y-128712500I243750J0D01*
G01*
X136456250Y-128712500D01*
G75*
G02*
X136700000Y-128956250I0J-243750D01*
G01*
X136700000Y-129443750D01*
G75*
G02*
X136456250Y-129687500I-243750J0D01*
G01*
G37*
G36*
G01*
X136456250Y-131262500D02*
X135893750Y-131262500D01*
G75*
G02*
X135650000Y-131018750I0J243750D01*
G01*
X135650000Y-130531250D01*
G75*
G02*
X135893750Y-130287500I243750J0D01*
G01*
X136456250Y-130287500D01*
G75*
G02*
X136700000Y-130531250I0J-243750D01*
G01*
X136700000Y-131018750D01*
G75*
G02*
X136456250Y-131262500I-243750J0D01*
G01*
G37*
G04 #@! TD*
D29*
G04 #@! TO.C,U1*
X149990000Y-47475000D03*
X150490000Y-47475000D03*
X150990000Y-47475000D03*
X151490000Y-47475000D03*
X151990000Y-47475000D03*
X152490000Y-47475000D03*
X152990000Y-47475000D03*
X153490000Y-47475000D03*
X153990000Y-47475000D03*
X154490000Y-47475000D03*
X154990000Y-47475000D03*
X155490000Y-47475000D03*
D30*
X156005000Y-47990000D03*
X156005000Y-48490000D03*
X156005000Y-48990000D03*
X156005000Y-49490000D03*
X156005000Y-49990000D03*
X156005000Y-50490000D03*
X156005000Y-50990000D03*
X156005000Y-51490000D03*
X156005000Y-51990000D03*
X156005000Y-52490000D03*
X156005000Y-52990000D03*
X156005000Y-53490000D03*
D29*
X155490000Y-54005000D03*
X154990000Y-54005000D03*
X154490000Y-54005000D03*
X153990000Y-54005000D03*
X153490000Y-54005000D03*
X152990000Y-54005000D03*
X152490000Y-54005000D03*
X151990000Y-54005000D03*
X151490000Y-54005000D03*
X150990000Y-54005000D03*
X150490000Y-54005000D03*
X149990000Y-54005000D03*
D30*
X149475000Y-53490000D03*
X149475000Y-52990000D03*
X149475000Y-52490000D03*
X149475000Y-51990000D03*
X149475000Y-51490000D03*
X149475000Y-50990000D03*
X149475000Y-50490000D03*
X149475000Y-49990000D03*
X149475000Y-49490000D03*
X149475000Y-48990000D03*
X149475000Y-48490000D03*
X149475000Y-47990000D03*
D31*
X152740000Y-50740000D03*
G04 #@! TD*
G04 #@! TO.C,R1*
G36*
G01*
X154812500Y-44835000D02*
X155207500Y-44835000D01*
G75*
G02*
X155380000Y-45007500I0J-172500D01*
G01*
X155380000Y-45352500D01*
G75*
G02*
X155207500Y-45525000I-172500J0D01*
G01*
X154812500Y-45525000D01*
G75*
G02*
X154640000Y-45352500I0J172500D01*
G01*
X154640000Y-45007500D01*
G75*
G02*
X154812500Y-44835000I172500J0D01*
G01*
G37*
G36*
G01*
X154812500Y-45805000D02*
X155207500Y-45805000D01*
G75*
G02*
X155380000Y-45977500I0J-172500D01*
G01*
X155380000Y-46322500D01*
G75*
G02*
X155207500Y-46495000I-172500J0D01*
G01*
X154812500Y-46495000D01*
G75*
G02*
X154640000Y-46322500I0J172500D01*
G01*
X154640000Y-45977500D01*
G75*
G02*
X154812500Y-45805000I172500J0D01*
G01*
G37*
G04 #@! TD*
G04 #@! TO.C,L1*
G36*
G01*
X150707500Y-45385000D02*
X150312500Y-45385000D01*
G75*
G02*
X150140000Y-45212500I0J172500D01*
G01*
X150140000Y-44867500D01*
G75*
G02*
X150312500Y-44695000I172500J0D01*
G01*
X150707500Y-44695000D01*
G75*
G02*
X150880000Y-44867500I0J-172500D01*
G01*
X150880000Y-45212500D01*
G75*
G02*
X150707500Y-45385000I-172500J0D01*
G01*
G37*
G36*
G01*
X150707500Y-44415000D02*
X150312500Y-44415000D01*
G75*
G02*
X150140000Y-44242500I0J172500D01*
G01*
X150140000Y-43897500D01*
G75*
G02*
X150312500Y-43725000I172500J0D01*
G01*
X150707500Y-43725000D01*
G75*
G02*
X150880000Y-43897500I0J-172500D01*
G01*
X150880000Y-44242500D01*
G75*
G02*
X150707500Y-44415000I-172500J0D01*
G01*
G37*
G04 #@! TD*
D32*
G04 #@! TO.C,E1*
X152710000Y-41410000D03*
X142010000Y-41410000D03*
X150510000Y-37680000D03*
X152710000Y-37680000D03*
G04 #@! TD*
G04 #@! TO.C,C5*
G36*
G01*
X145405000Y-54102500D02*
X145405000Y-54497500D01*
G75*
G02*
X145232500Y-54670000I-172500J0D01*
G01*
X144887500Y-54670000D01*
G75*
G02*
X144715000Y-54497500I0J172500D01*
G01*
X144715000Y-54102500D01*
G75*
G02*
X144887500Y-53930000I172500J0D01*
G01*
X145232500Y-53930000D01*
G75*
G02*
X145405000Y-54102500I0J-172500D01*
G01*
G37*
G36*
G01*
X146375000Y-54102500D02*
X146375000Y-54497500D01*
G75*
G02*
X146202500Y-54670000I-172500J0D01*
G01*
X145857500Y-54670000D01*
G75*
G02*
X145685000Y-54497500I0J172500D01*
G01*
X145685000Y-54102500D01*
G75*
G02*
X145857500Y-53930000I172500J0D01*
G01*
X146202500Y-53930000D01*
G75*
G02*
X146375000Y-54102500I0J-172500D01*
G01*
G37*
G04 #@! TD*
G04 #@! TO.C,C3*
G36*
G01*
X150855000Y-42832500D02*
X150855000Y-43227500D01*
G75*
G02*
X150682500Y-43400000I-172500J0D01*
G01*
X150337500Y-43400000D01*
G75*
G02*
X150165000Y-43227500I0J172500D01*
G01*
X150165000Y-42832500D01*
G75*
G02*
X150337500Y-42660000I172500J0D01*
G01*
X150682500Y-42660000D01*
G75*
G02*
X150855000Y-42832500I0J-172500D01*
G01*
G37*
G36*
G01*
X149885000Y-42832500D02*
X149885000Y-43227500D01*
G75*
G02*
X149712500Y-43400000I-172500J0D01*
G01*
X149367500Y-43400000D01*
G75*
G02*
X149195000Y-43227500I0J172500D01*
G01*
X149195000Y-42832500D01*
G75*
G02*
X149367500Y-42660000I172500J0D01*
G01*
X149712500Y-42660000D01*
G75*
G02*
X149885000Y-42832500I0J-172500D01*
G01*
G37*
G04 #@! TD*
G04 #@! TO.C,C2*
G36*
G01*
X149885000Y-45862500D02*
X149885000Y-46257500D01*
G75*
G02*
X149712500Y-46430000I-172500J0D01*
G01*
X149367500Y-46430000D01*
G75*
G02*
X149195000Y-46257500I0J172500D01*
G01*
X149195000Y-45862500D01*
G75*
G02*
X149367500Y-45690000I172500J0D01*
G01*
X149712500Y-45690000D01*
G75*
G02*
X149885000Y-45862500I0J-172500D01*
G01*
G37*
G36*
G01*
X150855000Y-45862500D02*
X150855000Y-46257500D01*
G75*
G02*
X150682500Y-46430000I-172500J0D01*
G01*
X150337500Y-46430000D01*
G75*
G02*
X150165000Y-46257500I0J172500D01*
G01*
X150165000Y-45862500D01*
G75*
G02*
X150337500Y-45690000I172500J0D01*
G01*
X150682500Y-45690000D01*
G75*
G02*
X150855000Y-45862500I0J-172500D01*
G01*
G37*
G04 #@! TD*
G04 #@! TO.C,C1*
G36*
G01*
X154187500Y-45515000D02*
X153792500Y-45515000D01*
G75*
G02*
X153620000Y-45342500I0J172500D01*
G01*
X153620000Y-44997500D01*
G75*
G02*
X153792500Y-44825000I172500J0D01*
G01*
X154187500Y-44825000D01*
G75*
G02*
X154360000Y-44997500I0J-172500D01*
G01*
X154360000Y-45342500D01*
G75*
G02*
X154187500Y-45515000I-172500J0D01*
G01*
G37*
G36*
G01*
X154187500Y-46485000D02*
X153792500Y-46485000D01*
G75*
G02*
X153620000Y-46312500I0J172500D01*
G01*
X153620000Y-45967500D01*
G75*
G02*
X153792500Y-45795000I172500J0D01*
G01*
X154187500Y-45795000D01*
G75*
G02*
X154360000Y-45967500I0J-172500D01*
G01*
X154360000Y-46312500D01*
G75*
G02*
X154187500Y-46485000I-172500J0D01*
G01*
G37*
G04 #@! TD*
D33*
G04 #@! TO.C,Q1*
X135900000Y-134025000D03*
X135900000Y-133025000D03*
D34*
X134175000Y-133525000D03*
G04 #@! TD*
G04 #@! TO.C,J2*
G36*
G01*
X124255000Y-129275000D02*
X122945000Y-129275000D01*
G75*
G02*
X122675000Y-129005000I0J270000D01*
G01*
X122675000Y-128195000D01*
G75*
G02*
X122945000Y-127925000I270000J0D01*
G01*
X124255000Y-127925000D01*
G75*
G02*
X124525000Y-128195000I0J-270000D01*
G01*
X124525000Y-129005000D01*
G75*
G02*
X124255000Y-129275000I-270000J0D01*
G01*
G37*
G36*
G01*
X124255000Y-126475000D02*
X122945000Y-126475000D01*
G75*
G02*
X122675000Y-126205000I0J270000D01*
G01*
X122675000Y-125395000D01*
G75*
G02*
X122945000Y-125125000I270000J0D01*
G01*
X124255000Y-125125000D01*
G75*
G02*
X124525000Y-125395000I0J-270000D01*
G01*
X124525000Y-126205000D01*
G75*
G02*
X124255000Y-126475000I-270000J0D01*
G01*
G37*
G04 #@! TD*
G04 #@! TO.C,J3*
G36*
G01*
X124655000Y-54675000D02*
X123345000Y-54675000D01*
G75*
G02*
X123075000Y-54405000I0J270000D01*
G01*
X123075000Y-53595000D01*
G75*
G02*
X123345000Y-53325000I270000J0D01*
G01*
X124655000Y-53325000D01*
G75*
G02*
X124925000Y-53595000I0J-270000D01*
G01*
X124925000Y-54405000D01*
G75*
G02*
X124655000Y-54675000I-270000J0D01*
G01*
G37*
G36*
G01*
X124655000Y-51875000D02*
X123345000Y-51875000D01*
G75*
G02*
X123075000Y-51605000I0J270000D01*
G01*
X123075000Y-50795000D01*
G75*
G02*
X123345000Y-50525000I270000J0D01*
G01*
X124655000Y-50525000D01*
G75*
G02*
X124925000Y-50795000I0J-270000D01*
G01*
X124925000Y-51605000D01*
G75*
G02*
X124655000Y-51875000I-270000J0D01*
G01*
G37*
G04 #@! TD*
D15*
G04 #@! TO.C,Q3*
X173000000Y-130650000D03*
X171000000Y-131600000D03*
X171000000Y-129700000D03*
G04 #@! TD*
G04 #@! TO.C,R23*
G36*
G01*
X168702500Y-130355000D02*
X169097500Y-130355000D01*
G75*
G02*
X169270000Y-130527500I0J-172500D01*
G01*
X169270000Y-130872500D01*
G75*
G02*
X169097500Y-131045000I-172500J0D01*
G01*
X168702500Y-131045000D01*
G75*
G02*
X168530000Y-130872500I0J172500D01*
G01*
X168530000Y-130527500D01*
G75*
G02*
X168702500Y-130355000I172500J0D01*
G01*
G37*
G36*
G01*
X168702500Y-129385000D02*
X169097500Y-129385000D01*
G75*
G02*
X169270000Y-129557500I0J-172500D01*
G01*
X169270000Y-129902500D01*
G75*
G02*
X169097500Y-130075000I-172500J0D01*
G01*
X168702500Y-130075000D01*
G75*
G02*
X168530000Y-129902500I0J172500D01*
G01*
X168530000Y-129557500D01*
G75*
G02*
X168702500Y-129385000I172500J0D01*
G01*
G37*
G04 #@! TD*
G04 #@! TO.C,R24*
G36*
G01*
X169097500Y-133215000D02*
X168702500Y-133215000D01*
G75*
G02*
X168530000Y-133042500I0J172500D01*
G01*
X168530000Y-132697500D01*
G75*
G02*
X168702500Y-132525000I172500J0D01*
G01*
X169097500Y-132525000D01*
G75*
G02*
X169270000Y-132697500I0J-172500D01*
G01*
X169270000Y-133042500D01*
G75*
G02*
X169097500Y-133215000I-172500J0D01*
G01*
G37*
G36*
G01*
X169097500Y-132245000D02*
X168702500Y-132245000D01*
G75*
G02*
X168530000Y-132072500I0J172500D01*
G01*
X168530000Y-131727500D01*
G75*
G02*
X168702500Y-131555000I172500J0D01*
G01*
X169097500Y-131555000D01*
G75*
G02*
X169270000Y-131727500I0J-172500D01*
G01*
X169270000Y-132072500D01*
G75*
G02*
X169097500Y-132245000I-172500J0D01*
G01*
G37*
G04 #@! TD*
D35*
G04 #@! TO.C,TP1*
X153825001Y-117000000D03*
G04 #@! TD*
G04 #@! TO.C,TP2*
X156875001Y-117000000D03*
G04 #@! TD*
M02*
