G04 #@! TF.GenerationSoftware,KiCad,Pcbnew,(5.1.6-0-10_14)*
G04 #@! TF.CreationDate,2020-09-07T13:37:45-07:00*
G04 #@! TF.ProjectId,microgame2,6d696372-6f67-4616-9d65-322e6b696361,rev?*
G04 #@! TF.SameCoordinates,Original*
G04 #@! TF.FileFunction,Legend,Top*
G04 #@! TF.FilePolarity,Positive*
%FSLAX46Y46*%
G04 Gerber Fmt 4.6, Leading zero omitted, Abs format (unit mm)*
G04 Created by KiCad (PCBNEW (5.1.6-0-10_14)) date 2020-09-07 13:37:45*
%MOMM*%
%LPD*%
G01*
G04 APERTURE LIST*
%ADD10C,0.250000*%
%ADD11C,0.152400*%
%ADD12C,0.120000*%
%ADD13C,0.200000*%
%ADD14C,0.127000*%
%ADD15C,0.150000*%
G04 APERTURE END LIST*
D10*
G04 #@! TO.C,Q4*
X163911803Y-55750000D02*
G75*
G03*
X163911803Y-55750000I-111803J0D01*
G01*
D11*
G04 #@! TO.C,U6*
X153940689Y-101496000D02*
X153559689Y-101496000D01*
X153940689Y-101242000D02*
X153940689Y-101496000D01*
X153559689Y-101242000D02*
X153940689Y-101242000D01*
X153559689Y-101496000D02*
X153559689Y-101242000D01*
X153440563Y-106804000D02*
X153059563Y-106804000D01*
X153440563Y-107058000D02*
X153440563Y-106804000D01*
X153059563Y-107058000D02*
X153440563Y-107058000D01*
X153059563Y-106804000D02*
X153059563Y-107058000D01*
X151276945Y-101821000D02*
X150671000Y-101821000D01*
X155329000Y-102427260D02*
X155329000Y-101821000D01*
X154723055Y-106479000D02*
X155329000Y-106479000D01*
X150671000Y-105872740D02*
X150671000Y-106479000D01*
X150671000Y-101821000D02*
X150671000Y-102427260D01*
X155329000Y-101821000D02*
X154723055Y-101821000D01*
X155329000Y-106479000D02*
X155329000Y-105872740D01*
X150671000Y-106479000D02*
X151276945Y-106479000D01*
D12*
G04 #@! TO.C,U9*
X124200000Y-39125000D02*
X175100000Y-39125000D01*
X175100000Y-84925000D02*
X175100000Y-39125000D01*
X124200000Y-39125000D02*
X124200000Y-84925000D01*
X175100000Y-84925000D02*
X124200000Y-84925000D01*
D13*
X149650000Y-60850000D02*
X150150000Y-61450000D01*
X149650000Y-60850000D02*
X149150000Y-61450000D01*
X149650000Y-62850000D02*
X149650000Y-60850000D01*
D12*
X136900000Y-60425000D02*
X136900000Y-84925000D01*
X162400000Y-60425000D02*
X162400000Y-84925000D01*
G04 #@! TO.C,C23*
X140362779Y-57910000D02*
X140037221Y-57910000D01*
X140362779Y-56890000D02*
X140037221Y-56890000D01*
D14*
G04 #@! TO.C,U8*
X148350000Y-72050000D02*
X148250000Y-72050000D01*
X143750000Y-72050000D02*
X143850000Y-72050000D01*
X148350000Y-75650000D02*
X148250000Y-75650000D01*
X143750000Y-75650000D02*
X143850000Y-75650000D01*
X148350000Y-72050000D02*
X148350000Y-73150000D01*
X143750000Y-72050000D02*
X143750000Y-73150000D01*
X148350000Y-75650000D02*
X148350000Y-74550000D01*
X143750000Y-75650000D02*
X143750000Y-74550000D01*
D13*
X148160000Y-71305000D02*
G75*
G03*
X148160000Y-71305000I-100000J0D01*
G01*
D11*
G04 #@! TO.C,U3*
X141580882Y-77485100D02*
X141885100Y-77485100D01*
X139319118Y-74614900D02*
X139014900Y-74614900D01*
X141885100Y-74614900D02*
X141580882Y-74614900D01*
X141885100Y-77485100D02*
X141885100Y-74614900D01*
X139014900Y-77485100D02*
X139319118Y-77485100D01*
X139014900Y-74614900D02*
X139014900Y-77485100D01*
D12*
G04 #@! TO.C,C9*
X141987221Y-79310000D02*
X142312779Y-79310000D01*
X141987221Y-78290000D02*
X142312779Y-78290000D01*
G04 #@! TO.C,C8*
X140190000Y-72750279D02*
X140190000Y-72424721D01*
X141210000Y-72750279D02*
X141210000Y-72424721D01*
G04 #@! TO.C,TP3*
X145800000Y-87500000D02*
G75*
G03*
X145800000Y-87500000I-700000J0D01*
G01*
G04 #@! TO.C,TP4*
X151800000Y-87500000D02*
G75*
G03*
X151800000Y-87500000I-700000J0D01*
G01*
G04 #@! TO.C,TP5*
X140300000Y-87500000D02*
G75*
G03*
X140300000Y-87500000I-700000J0D01*
G01*
G04 #@! TO.C,TP6*
X143000000Y-87500000D02*
G75*
G03*
X143000000Y-87500000I-700000J0D01*
G01*
G04 #@! TO.C,TP7*
X148700000Y-87500000D02*
G75*
G03*
X148700000Y-87500000I-700000J0D01*
G01*
G04 #@! TO.C,Q4*
D15*
X167347619Y-57095238D02*
X167300000Y-57190476D01*
X167204761Y-57285714D01*
X167061904Y-57428571D01*
X167014285Y-57523809D01*
X167014285Y-57619047D01*
X167252380Y-57571428D02*
X167204761Y-57666666D01*
X167109523Y-57761904D01*
X166919047Y-57809523D01*
X166585714Y-57809523D01*
X166395238Y-57761904D01*
X166300000Y-57666666D01*
X166252380Y-57571428D01*
X166252380Y-57380952D01*
X166300000Y-57285714D01*
X166395238Y-57190476D01*
X166585714Y-57142857D01*
X166919047Y-57142857D01*
X167109523Y-57190476D01*
X167204761Y-57285714D01*
X167252380Y-57380952D01*
X167252380Y-57571428D01*
X166585714Y-56285714D02*
X167252380Y-56285714D01*
X166204761Y-56523809D02*
X166919047Y-56761904D01*
X166919047Y-56142857D01*
G04 #@! TO.C,U6*
X149965000Y-101721380D02*
X149965000Y-101959476D01*
X149726904Y-101864238D02*
X149965000Y-101959476D01*
X150203095Y-101864238D01*
X149822142Y-102149952D02*
X149965000Y-101959476D01*
X150107857Y-102149952D01*
X149965000Y-101721380D02*
X149965000Y-101959476D01*
X149726904Y-101864238D02*
X149965000Y-101959476D01*
X150203095Y-101864238D01*
X149822142Y-102149952D02*
X149965000Y-101959476D01*
X150107857Y-102149952D01*
X149965000Y-101721380D02*
X149965000Y-101959476D01*
X149726904Y-101864238D02*
X149965000Y-101959476D01*
X150203095Y-101864238D01*
X149822142Y-102149952D02*
X149965000Y-101959476D01*
X150107857Y-102149952D01*
G04 #@! TO.C,U3*
X140918380Y-74018000D02*
X141156476Y-74018000D01*
X141061238Y-74256095D02*
X141156476Y-74018000D01*
X141061238Y-73779904D01*
X141346952Y-74160857D02*
X141156476Y-74018000D01*
X141346952Y-73875142D01*
G04 #@! TO.C,TP3*
X143838095Y-85504380D02*
X144409523Y-85504380D01*
X144123809Y-86504380D02*
X144123809Y-85504380D01*
X144742857Y-86504380D02*
X144742857Y-85504380D01*
X145123809Y-85504380D01*
X145219047Y-85552000D01*
X145266666Y-85599619D01*
X145314285Y-85694857D01*
X145314285Y-85837714D01*
X145266666Y-85932952D01*
X145219047Y-85980571D01*
X145123809Y-86028190D01*
X144742857Y-86028190D01*
X145647619Y-85504380D02*
X146266666Y-85504380D01*
X145933333Y-85885333D01*
X146076190Y-85885333D01*
X146171428Y-85932952D01*
X146219047Y-85980571D01*
X146266666Y-86075809D01*
X146266666Y-86313904D01*
X146219047Y-86409142D01*
X146171428Y-86456761D01*
X146076190Y-86504380D01*
X145790476Y-86504380D01*
X145695238Y-86456761D01*
X145647619Y-86409142D01*
G04 #@! TO.C,TP4*
X149838095Y-85504380D02*
X150409523Y-85504380D01*
X150123809Y-86504380D02*
X150123809Y-85504380D01*
X150742857Y-86504380D02*
X150742857Y-85504380D01*
X151123809Y-85504380D01*
X151219047Y-85552000D01*
X151266666Y-85599619D01*
X151314285Y-85694857D01*
X151314285Y-85837714D01*
X151266666Y-85932952D01*
X151219047Y-85980571D01*
X151123809Y-86028190D01*
X150742857Y-86028190D01*
X152171428Y-85837714D02*
X152171428Y-86504380D01*
X151933333Y-85456761D02*
X151695238Y-86171047D01*
X152314285Y-86171047D01*
G04 #@! TO.C,TP5*
X138338095Y-85504380D02*
X138909523Y-85504380D01*
X138623809Y-86504380D02*
X138623809Y-85504380D01*
X139242857Y-86504380D02*
X139242857Y-85504380D01*
X139623809Y-85504380D01*
X139719047Y-85552000D01*
X139766666Y-85599619D01*
X139814285Y-85694857D01*
X139814285Y-85837714D01*
X139766666Y-85932952D01*
X139719047Y-85980571D01*
X139623809Y-86028190D01*
X139242857Y-86028190D01*
X140719047Y-85504380D02*
X140242857Y-85504380D01*
X140195238Y-85980571D01*
X140242857Y-85932952D01*
X140338095Y-85885333D01*
X140576190Y-85885333D01*
X140671428Y-85932952D01*
X140719047Y-85980571D01*
X140766666Y-86075809D01*
X140766666Y-86313904D01*
X140719047Y-86409142D01*
X140671428Y-86456761D01*
X140576190Y-86504380D01*
X140338095Y-86504380D01*
X140242857Y-86456761D01*
X140195238Y-86409142D01*
G04 #@! TO.C,TP6*
X141038095Y-85504380D02*
X141609523Y-85504380D01*
X141323809Y-86504380D02*
X141323809Y-85504380D01*
X141942857Y-86504380D02*
X141942857Y-85504380D01*
X142323809Y-85504380D01*
X142419047Y-85552000D01*
X142466666Y-85599619D01*
X142514285Y-85694857D01*
X142514285Y-85837714D01*
X142466666Y-85932952D01*
X142419047Y-85980571D01*
X142323809Y-86028190D01*
X141942857Y-86028190D01*
X143371428Y-85504380D02*
X143180952Y-85504380D01*
X143085714Y-85552000D01*
X143038095Y-85599619D01*
X142942857Y-85742476D01*
X142895238Y-85932952D01*
X142895238Y-86313904D01*
X142942857Y-86409142D01*
X142990476Y-86456761D01*
X143085714Y-86504380D01*
X143276190Y-86504380D01*
X143371428Y-86456761D01*
X143419047Y-86409142D01*
X143466666Y-86313904D01*
X143466666Y-86075809D01*
X143419047Y-85980571D01*
X143371428Y-85932952D01*
X143276190Y-85885333D01*
X143085714Y-85885333D01*
X142990476Y-85932952D01*
X142942857Y-85980571D01*
X142895238Y-86075809D01*
G04 #@! TO.C,TP7*
X146738095Y-85504380D02*
X147309523Y-85504380D01*
X147023809Y-86504380D02*
X147023809Y-85504380D01*
X147642857Y-86504380D02*
X147642857Y-85504380D01*
X148023809Y-85504380D01*
X148119047Y-85552000D01*
X148166666Y-85599619D01*
X148214285Y-85694857D01*
X148214285Y-85837714D01*
X148166666Y-85932952D01*
X148119047Y-85980571D01*
X148023809Y-86028190D01*
X147642857Y-86028190D01*
X148547619Y-85504380D02*
X149214285Y-85504380D01*
X148785714Y-86504380D01*
G04 #@! TO.C,R25*
X164522380Y-57627857D02*
X164046190Y-57961190D01*
X164522380Y-58199285D02*
X163522380Y-58199285D01*
X163522380Y-57818333D01*
X163570000Y-57723095D01*
X163617619Y-57675476D01*
X163712857Y-57627857D01*
X163855714Y-57627857D01*
X163950952Y-57675476D01*
X163998571Y-57723095D01*
X164046190Y-57818333D01*
X164046190Y-58199285D01*
X163617619Y-57246904D02*
X163570000Y-57199285D01*
X163522380Y-57104047D01*
X163522380Y-56865952D01*
X163570000Y-56770714D01*
X163617619Y-56723095D01*
X163712857Y-56675476D01*
X163808095Y-56675476D01*
X163950952Y-56723095D01*
X164522380Y-57294523D01*
X164522380Y-56675476D01*
X163522380Y-55770714D02*
X163522380Y-56246904D01*
X163998571Y-56294523D01*
X163950952Y-56246904D01*
X163903333Y-56151666D01*
X163903333Y-55913571D01*
X163950952Y-55818333D01*
X163998571Y-55770714D01*
X164093809Y-55723095D01*
X164331904Y-55723095D01*
X164427142Y-55770714D01*
X164474761Y-55818333D01*
X164522380Y-55913571D01*
X164522380Y-56151666D01*
X164474761Y-56246904D01*
X164427142Y-56294523D01*
G04 #@! TO.C,R26*
X162707142Y-54782380D02*
X162373809Y-54306190D01*
X162135714Y-54782380D02*
X162135714Y-53782380D01*
X162516666Y-53782380D01*
X162611904Y-53830000D01*
X162659523Y-53877619D01*
X162707142Y-53972857D01*
X162707142Y-54115714D01*
X162659523Y-54210952D01*
X162611904Y-54258571D01*
X162516666Y-54306190D01*
X162135714Y-54306190D01*
X163088095Y-53877619D02*
X163135714Y-53830000D01*
X163230952Y-53782380D01*
X163469047Y-53782380D01*
X163564285Y-53830000D01*
X163611904Y-53877619D01*
X163659523Y-53972857D01*
X163659523Y-54068095D01*
X163611904Y-54210952D01*
X163040476Y-54782380D01*
X163659523Y-54782380D01*
X164516666Y-53782380D02*
X164326190Y-53782380D01*
X164230952Y-53830000D01*
X164183333Y-53877619D01*
X164088095Y-54020476D01*
X164040476Y-54210952D01*
X164040476Y-54591904D01*
X164088095Y-54687142D01*
X164135714Y-54734761D01*
X164230952Y-54782380D01*
X164421428Y-54782380D01*
X164516666Y-54734761D01*
X164564285Y-54687142D01*
X164611904Y-54591904D01*
X164611904Y-54353809D01*
X164564285Y-54258571D01*
X164516666Y-54210952D01*
X164421428Y-54163333D01*
X164230952Y-54163333D01*
X164135714Y-54210952D01*
X164088095Y-54258571D01*
X164040476Y-54353809D01*
G04 #@! TD*
M02*
